<mxfile host="65bd71144e">
    <diagram id="XlPbG62ZfzjRQueGpX2F" name="Diagrama-es">
        <mxGraphModel dx="1177" dy="777" grid="1" gridSize="1" guides="1" tooltips="1" connect="1" arrows="1" fold="1" page="1" pageScale="1" pageWidth="827" pageHeight="1169" background="none" math="0" shadow="0">
            <root>
                <mxCell id="0"/>
                <mxCell id="1" parent="0"/>
                <mxCell id="95" value="" style="rounded=1;whiteSpace=wrap;html=1;dashed=1;fontSize=10;fontColor=#004A52;strokeColor=#4DB2BD;fillColor=none;gradientColor=none;arcSize=8;perimeterSpacing=0;strokeWidth=2;" parent="1" vertex="1">
                    <mxGeometry x="6.5" y="12" width="810" height="414" as="geometry"/>
                </mxCell>
                <mxCell id="22" value="" style="rounded=1;whiteSpace=wrap;html=1;fontColor=#004A52;strokeColor=#FFFFFF;fillColor=#00636E;arcSize=11;" parent="1" vertex="1">
                    <mxGeometry x="240.5" y="35" width="334" height="262" as="geometry"/>
                </mxCell>
                <mxCell id="23" value="&lt;font style=&quot;font-size: 19px&quot;&gt;Server&lt;/font&gt;" style="text;html=1;strokeColor=none;fillColor=none;align=center;verticalAlign=middle;whiteSpace=wrap;rounded=0;fontColor=#FFFFFF;" parent="1" vertex="1">
                    <mxGeometry x="348" y="39" width="119" height="30" as="geometry"/>
                </mxCell>
                <mxCell id="40" style="edgeStyle=none;html=1;exitX=0.75;exitY=0;exitDx=0;exitDy=0;entryX=0.301;entryY=1.008;entryDx=0;entryDy=0;entryPerimeter=0;fontSize=19;fontColor=#FFFFFF;endArrow=blockThin;endFill=1;strokeWidth=2;" parent="1" source="24" target="29" edge="1">
                    <mxGeometry relative="1" as="geometry"/>
                </mxCell>
                <mxCell id="24" value="" style="rounded=1;whiteSpace=wrap;html=1;fontColor=#004A52;strokeColor=#FFFFFF;fillColor=#00636E;" parent="1" vertex="1">
                    <mxGeometry x="255.5" y="179" width="120" height="107" as="geometry"/>
                </mxCell>
                <mxCell id="28" value="Service Server" style="text;html=1;strokeColor=none;fillColor=none;align=center;verticalAlign=middle;whiteSpace=wrap;rounded=0;fontColor=#FFFFFF;" parent="1" vertex="1">
                    <mxGeometry x="269.5" y="183" width="93" height="30" as="geometry"/>
                </mxCell>
                <mxCell id="42" style="edgeStyle=none;html=1;exitX=0.105;exitY=0.994;exitDx=0;exitDy=0;entryX=0.25;entryY=0;entryDx=0;entryDy=0;fontSize=19;fontColor=#FFFFFF;endArrow=none;endFill=0;strokeWidth=2;exitPerimeter=0;" parent="1" source="29" target="24" edge="1">
                    <mxGeometry relative="1" as="geometry"/>
                </mxCell>
                <mxCell id="43" style="edgeStyle=none;html=1;exitX=0.701;exitY=1.008;exitDx=0;exitDy=0;entryX=0.25;entryY=0;entryDx=0;entryDy=0;fontSize=19;fontColor=#FFFFFF;endArrow=blockThin;endFill=1;strokeWidth=2;exitPerimeter=0;" parent="1" source="29" target="32" edge="1">
                    <mxGeometry relative="1" as="geometry"/>
                </mxCell>
                <mxCell id="29" value="" style="rounded=1;whiteSpace=wrap;html=1;fontSize=19;fontColor=#FFFFFF;strokeColor=#FFFFFF;fillColor=#00636E;" parent="1" vertex="1">
                    <mxGeometry x="254.5" y="80" width="305" height="60" as="geometry"/>
                </mxCell>
                <mxCell id="31" value="Server Controller" style="text;html=1;strokeColor=none;fillColor=none;align=center;verticalAlign=middle;whiteSpace=wrap;rounded=0;fontColor=#FFFFFF;" parent="1" vertex="1">
                    <mxGeometry x="331.5" y="80" width="150" height="30" as="geometry"/>
                </mxCell>
                <mxCell id="44" style="edgeStyle=none;html=1;exitX=0.75;exitY=0;exitDx=0;exitDy=0;entryX=0.896;entryY=0.988;entryDx=0;entryDy=0;entryPerimeter=0;fontSize=19;fontColor=#FFFFFF;endArrow=blockThin;endFill=1;strokeWidth=2;" parent="1" source="32" target="29" edge="1">
                    <mxGeometry relative="1" as="geometry"/>
                </mxCell>
                <mxCell id="32" value="" style="rounded=1;whiteSpace=wrap;html=1;fontColor=#004A52;strokeColor=#FFFFFF;fillColor=#00636E;" parent="1" vertex="1">
                    <mxGeometry x="437.5" y="176.5" width="120" height="107" as="geometry"/>
                </mxCell>
                <mxCell id="33" value="Master node" style="text;html=1;strokeColor=none;fillColor=none;align=center;verticalAlign=middle;whiteSpace=wrap;rounded=0;fontColor=#FFFFFF;" parent="1" vertex="1">
                    <mxGeometry x="461.25" y="183" width="72.5" height="30" as="geometry"/>
                </mxCell>
                <mxCell id="45" value="" style="rounded=1;whiteSpace=wrap;html=1;fontColor=#004A52;strokeColor=#FFFFFF;fillColor=#00636E;" parent="1" vertex="1">
                    <mxGeometry x="610.5" y="20" width="198" height="249" as="geometry"/>
                </mxCell>
                <mxCell id="46" value="Slave node #0" style="text;html=1;strokeColor=none;fillColor=none;align=center;verticalAlign=middle;whiteSpace=wrap;rounded=0;fontColor=#FFFFFF;" parent="1" vertex="1">
                    <mxGeometry x="665.88" y="22" width="87.25" height="30" as="geometry"/>
                </mxCell>
                <mxCell id="49" value="" style="rounded=1;whiteSpace=wrap;html=1;fontSize=19;fontColor=#FFFFFF;strokeColor=#FFFFFF;fillColor=#009999;" parent="1" vertex="1">
                    <mxGeometry x="620.5" y="55" width="176" height="91" as="geometry"/>
                </mxCell>
                <mxCell id="50" value="&lt;font style=&quot;font-size: 10px&quot;&gt;ImageTaskModule&lt;/font&gt;" style="text;html=1;strokeColor=none;fillColor=none;align=center;verticalAlign=middle;whiteSpace=wrap;rounded=0;fontColor=#FFFFFF;" parent="1" vertex="1">
                    <mxGeometry x="670.25" y="54" width="72.5" height="30" as="geometry"/>
                </mxCell>
                <mxCell id="51" value="" style="rounded=1;whiteSpace=wrap;html=1;fontSize=19;fontColor=#FFFFFF;strokeColor=#FFFFFF;fillColor=#00CCCC;" parent="1" vertex="1">
                    <mxGeometry x="621.5" y="155" width="176" height="98" as="geometry"/>
                </mxCell>
                <mxCell id="52" value="&lt;font style=&quot;font-size: 10px&quot;&gt;Yolov5TaskModule&lt;/font&gt;" style="text;html=1;strokeColor=none;fillColor=none;align=center;verticalAlign=middle;whiteSpace=wrap;rounded=0;fontColor=#FFFFFF;" parent="1" vertex="1">
                    <mxGeometry x="670.25" y="156" width="72.5" height="30" as="geometry"/>
                </mxCell>
                <mxCell id="53" value="" style="rounded=1;whiteSpace=wrap;html=1;fontColor=#004A52;strokeColor=#FFFFFF;fillColor=#00636E;" parent="1" vertex="1">
                    <mxGeometry x="607.5" y="280" width="198" height="135" as="geometry"/>
                </mxCell>
                <mxCell id="54" value="Slave node #0" style="text;html=1;strokeColor=none;fillColor=none;align=center;verticalAlign=middle;whiteSpace=wrap;rounded=0;fontColor=#FFFFFF;" parent="1" vertex="1">
                    <mxGeometry x="662.88" y="282" width="87.25" height="30" as="geometry"/>
                </mxCell>
                <mxCell id="55" value="" style="rounded=1;whiteSpace=wrap;html=1;fontSize=19;fontColor=#FFFFFF;strokeColor=#FFFFFF;fillColor=#009999;" parent="1" vertex="1">
                    <mxGeometry x="617.5" y="315" width="176" height="91" as="geometry"/>
                </mxCell>
                <mxCell id="56" value="&lt;font style=&quot;font-size: 10px&quot;&gt;ImageTaskModule&lt;/font&gt;" style="text;html=1;strokeColor=none;fillColor=none;align=center;verticalAlign=middle;whiteSpace=wrap;rounded=0;fontColor=#FFFFFF;" parent="1" vertex="1">
                    <mxGeometry x="667.25" y="314" width="72.5" height="30" as="geometry"/>
                </mxCell>
                <mxCell id="64" value="" style="rounded=1;whiteSpace=wrap;html=1;fontColor=#004A52;strokeColor=#FFFFFF;fillColor=#00636E;" parent="1" vertex="1">
                    <mxGeometry x="26.5" y="231.25" width="120" height="107" as="geometry"/>
                </mxCell>
                <mxCell id="65" value="Request #A" style="rounded=1;whiteSpace=wrap;html=1;fontColor=#ffffff;fillColor=#009999;strokeColor=#FFFFFF;arcSize=22;dashed=1;strokeWidth=2;gradientColor=none;gradientDirection=east;shadow=0;glass=0;sketch=0;" parent="1" vertex="1">
                    <mxGeometry x="34.5" y="265.25" width="107" height="28" as="geometry"/>
                </mxCell>
                <mxCell id="66" value="Request #B" style="rounded=1;whiteSpace=wrap;html=1;fontColor=#ffffff;fillColor=#00CCCC;strokeColor=#FFFFFF;arcSize=22;dashed=1;strokeWidth=2;sketch=0;" parent="1" vertex="1">
                    <mxGeometry x="34.5" y="299.25" width="107" height="28" as="geometry"/>
                </mxCell>
                <mxCell id="67" value="Client #0" style="text;html=1;strokeColor=none;fillColor=none;align=center;verticalAlign=middle;whiteSpace=wrap;rounded=0;fontColor=#FFFFFF;" parent="1" vertex="1">
                    <mxGeometry x="55.5" y="232.25" width="60" height="30" as="geometry"/>
                </mxCell>
                <mxCell id="68" value="" style="rounded=1;whiteSpace=wrap;html=1;fontColor=#004A52;strokeColor=#FFFFFF;fillColor=#00636E;arcSize=11;" parent="1" vertex="1">
                    <mxGeometry x="241.5" y="36" width="334" height="375" as="geometry"/>
                </mxCell>
                <mxCell id="69" value="&lt;font style=&quot;font-size: 19px&quot;&gt;Server&lt;/font&gt;" style="text;html=1;strokeColor=none;fillColor=none;align=center;verticalAlign=middle;whiteSpace=wrap;rounded=0;fontColor=#FFFFFF;" parent="1" vertex="1">
                    <mxGeometry x="349" y="40" width="119" height="30" as="geometry"/>
                </mxCell>
                <mxCell id="71" value="" style="rounded=1;whiteSpace=wrap;html=1;fontColor=#004A52;strokeColor=#FFFFFF;fillColor=#00636E;" parent="1" vertex="1">
                    <mxGeometry x="256.5" y="180" width="140" height="209" as="geometry"/>
                </mxCell>
                <mxCell id="74" value="Service Server" style="text;html=1;strokeColor=none;fillColor=none;align=center;verticalAlign=middle;whiteSpace=wrap;rounded=0;fontColor=#FFFFFF;" parent="1" vertex="1">
                    <mxGeometry x="280.5" y="184" width="93" height="30" as="geometry"/>
                </mxCell>
                <mxCell id="77" value="" style="rounded=1;whiteSpace=wrap;html=1;fontSize=19;fontColor=#FFFFFF;strokeColor=#FFFFFF;fillColor=#00636E;" parent="1" vertex="1">
                    <mxGeometry x="255.5" y="81" width="305" height="60" as="geometry"/>
                </mxCell>
                <mxCell id="78" value="Server Controller" style="text;html=1;strokeColor=none;fillColor=none;align=center;verticalAlign=middle;whiteSpace=wrap;rounded=0;fontColor=#FFFFFF;" parent="1" vertex="1">
                    <mxGeometry x="332.5" y="81" width="150" height="30" as="geometry"/>
                </mxCell>
                <mxCell id="82" value="" style="rounded=1;whiteSpace=wrap;html=1;fontColor=#004A52;strokeColor=#FFFFFF;fillColor=#00636E;arcSize=16;" parent="1" vertex="1">
                    <mxGeometry x="414.5" y="177.5" width="144" height="214.5" as="geometry"/>
                </mxCell>
                <mxCell id="83" value="Master node" style="text;html=1;strokeColor=none;fillColor=none;align=center;verticalAlign=middle;whiteSpace=wrap;rounded=0;fontColor=#FFFFFF;" parent="1" vertex="1">
                    <mxGeometry x="449.5" y="184" width="72.5" height="30" as="geometry"/>
                </mxCell>
                <mxCell id="84" value="" style="rounded=1;whiteSpace=wrap;html=1;fontColor=#004A52;strokeColor=#FFFFFF;fillColor=#00636E;" parent="1" vertex="1">
                    <mxGeometry x="611.5" y="21" width="198" height="249" as="geometry"/>
                </mxCell>
                <mxCell id="85" value="Slave node #0" style="text;html=1;strokeColor=none;fillColor=none;align=center;verticalAlign=middle;whiteSpace=wrap;rounded=0;fontColor=#FFFFFF;" parent="1" vertex="1">
                    <mxGeometry x="666.88" y="23" width="87.25" height="30" as="geometry"/>
                </mxCell>
                <mxCell id="86" value="" style="rounded=1;whiteSpace=wrap;html=1;fontSize=19;fontColor=#FFFFFF;strokeColor=#FFFFFF;fillColor=#009999;" parent="1" vertex="1">
                    <mxGeometry x="621.5" y="56" width="176" height="91" as="geometry"/>
                </mxCell>
                <mxCell id="87" value="&lt;font style=&quot;font-size: 10px&quot;&gt;ImageTaskModule&lt;/font&gt;" style="text;html=1;strokeColor=none;fillColor=none;align=center;verticalAlign=middle;whiteSpace=wrap;rounded=0;fontColor=#FFFFFF;" parent="1" vertex="1">
                    <mxGeometry x="671.25" y="55" width="72.5" height="30" as="geometry"/>
                </mxCell>
                <mxCell id="88" value="" style="rounded=1;whiteSpace=wrap;html=1;fontSize=19;fontColor=#FFFFFF;strokeColor=#FFFFFF;fillColor=#00CCCC;" parent="1" vertex="1">
                    <mxGeometry x="622.5" y="156" width="176" height="98" as="geometry"/>
                </mxCell>
                <mxCell id="89" value="&lt;font style=&quot;font-size: 10px&quot;&gt;Yolov5TaskModule&lt;/font&gt;" style="text;html=1;strokeColor=none;fillColor=none;align=center;verticalAlign=middle;whiteSpace=wrap;rounded=0;fontColor=#FFFFFF;" parent="1" vertex="1">
                    <mxGeometry x="671.25" y="157" width="72.5" height="30" as="geometry"/>
                </mxCell>
                <mxCell id="90" value="" style="rounded=1;whiteSpace=wrap;html=1;fontColor=#004A52;strokeColor=#FFFFFF;fillColor=#00636E;" parent="1" vertex="1">
                    <mxGeometry x="608.5" y="281" width="198" height="135" as="geometry"/>
                </mxCell>
                <mxCell id="91" value="Slave node #1" style="text;html=1;strokeColor=none;fillColor=none;align=center;verticalAlign=middle;whiteSpace=wrap;rounded=0;fontColor=#FFFFFF;" parent="1" vertex="1">
                    <mxGeometry x="663.88" y="283" width="87.25" height="30" as="geometry"/>
                </mxCell>
                <mxCell id="92" value="" style="rounded=1;whiteSpace=wrap;html=1;fontSize=19;fontColor=#FFFFFF;strokeColor=#FFFFFF;fillColor=#009999;" parent="1" vertex="1">
                    <mxGeometry x="618.5" y="316" width="176" height="91" as="geometry"/>
                </mxCell>
                <mxCell id="93" value="&lt;font style=&quot;font-size: 10px&quot;&gt;ImageTaskModule&lt;/font&gt;" style="text;html=1;strokeColor=none;fillColor=none;align=center;verticalAlign=middle;whiteSpace=wrap;rounded=0;fontColor=#FFFFFF;" parent="1" vertex="1">
                    <mxGeometry x="668.25" y="315" width="72.5" height="30" as="geometry"/>
                </mxCell>
                <mxCell id="94" value="&lt;font color=&quot;#004a52&quot; style=&quot;font-size: 12px&quot;&gt;&lt;b&gt;STEP 1: &lt;/b&gt;El cliente #0 envía sendas requests A y B al nodo servidor.&lt;/font&gt;" style="text;html=1;strokeColor=none;fillColor=#4DB2BD;align=center;verticalAlign=middle;whiteSpace=wrap;rounded=0;fontSize=10;fontColor=#FFFFFF;gradientColor=none;" parent="1" vertex="1">
                    <mxGeometry x="22.5" y="33" width="200" height="109" as="geometry"/>
                </mxCell>
                <mxCell id="96" value="" style="rounded=1;whiteSpace=wrap;html=1;dashed=1;fontSize=10;fontColor=#004A52;strokeColor=#4DB2BD;fillColor=none;gradientColor=none;arcSize=8;perimeterSpacing=0;strokeWidth=2;" parent="1" vertex="1">
                    <mxGeometry x="7.5" y="446" width="810" height="414" as="geometry"/>
                </mxCell>
                <mxCell id="100" value="" style="rounded=1;whiteSpace=wrap;html=1;fontColor=#004A52;strokeColor=#FFFFFF;fillColor=#00636E;arcSize=11;" parent="1" vertex="1">
                    <mxGeometry x="241.5" y="469" width="334" height="262" as="geometry"/>
                </mxCell>
                <mxCell id="101" value="&lt;font style=&quot;font-size: 19px&quot;&gt;Server&lt;/font&gt;" style="text;html=1;strokeColor=none;fillColor=none;align=center;verticalAlign=middle;whiteSpace=wrap;rounded=0;fontColor=#FFFFFF;" parent="1" vertex="1">
                    <mxGeometry x="349" y="473" width="119" height="30" as="geometry"/>
                </mxCell>
                <mxCell id="102" style="edgeStyle=none;html=1;exitX=0.75;exitY=0;exitDx=0;exitDy=0;entryX=0.301;entryY=1.008;entryDx=0;entryDy=0;entryPerimeter=0;fontSize=19;fontColor=#FFFFFF;endArrow=blockThin;endFill=1;strokeWidth=2;" parent="1" source="103" target="109" edge="1">
                    <mxGeometry relative="1" as="geometry"/>
                </mxCell>
                <mxCell id="103" value="" style="rounded=1;whiteSpace=wrap;html=1;fontColor=#004A52;strokeColor=#FFFFFF;fillColor=#00636E;" parent="1" vertex="1">
                    <mxGeometry x="256.5" y="613" width="120" height="107" as="geometry"/>
                </mxCell>
                <mxCell id="106" value="Service Server" style="text;html=1;strokeColor=none;fillColor=none;align=center;verticalAlign=middle;whiteSpace=wrap;rounded=0;fontColor=#FFFFFF;" parent="1" vertex="1">
                    <mxGeometry x="270.5" y="617" width="93" height="30" as="geometry"/>
                </mxCell>
                <mxCell id="107" style="edgeStyle=none;html=1;exitX=0.105;exitY=0.994;exitDx=0;exitDy=0;entryX=0.25;entryY=0;entryDx=0;entryDy=0;fontSize=19;fontColor=#FFFFFF;endArrow=none;endFill=0;strokeWidth=2;exitPerimeter=0;" parent="1" source="109" target="103" edge="1">
                    <mxGeometry relative="1" as="geometry"/>
                </mxCell>
                <mxCell id="108" style="edgeStyle=none;html=1;exitX=0.701;exitY=1.008;exitDx=0;exitDy=0;entryX=0.25;entryY=0;entryDx=0;entryDy=0;fontSize=19;fontColor=#FFFFFF;endArrow=blockThin;endFill=1;strokeWidth=2;exitPerimeter=0;" parent="1" source="109" target="114" edge="1">
                    <mxGeometry relative="1" as="geometry"/>
                </mxCell>
                <mxCell id="109" value="" style="rounded=1;whiteSpace=wrap;html=1;fontSize=19;fontColor=#FFFFFF;strokeColor=#FFFFFF;fillColor=#00636E;" parent="1" vertex="1">
                    <mxGeometry x="255.5" y="514" width="305" height="60" as="geometry"/>
                </mxCell>
                <mxCell id="110" value="Server Controller" style="text;html=1;strokeColor=none;fillColor=none;align=center;verticalAlign=middle;whiteSpace=wrap;rounded=0;fontColor=#FFFFFF;" parent="1" vertex="1">
                    <mxGeometry x="332.5" y="514" width="150" height="30" as="geometry"/>
                </mxCell>
                <mxCell id="111" style="edgeStyle=none;html=1;exitX=0.75;exitY=0;exitDx=0;exitDy=0;entryX=0.896;entryY=0.988;entryDx=0;entryDy=0;entryPerimeter=0;fontSize=19;fontColor=#FFFFFF;endArrow=blockThin;endFill=1;strokeWidth=2;" parent="1" source="114" target="109" edge="1">
                    <mxGeometry relative="1" as="geometry"/>
                </mxCell>
                <mxCell id="114" value="" style="rounded=1;whiteSpace=wrap;html=1;fontColor=#004A52;strokeColor=#FFFFFF;fillColor=#00636E;" parent="1" vertex="1">
                    <mxGeometry x="438.5" y="610.5" width="120" height="107" as="geometry"/>
                </mxCell>
                <mxCell id="115" value="Master node" style="text;html=1;strokeColor=none;fillColor=none;align=center;verticalAlign=middle;whiteSpace=wrap;rounded=0;fontColor=#FFFFFF;" parent="1" vertex="1">
                    <mxGeometry x="462.25" y="617" width="72.5" height="30" as="geometry"/>
                </mxCell>
                <mxCell id="116" value="" style="rounded=1;whiteSpace=wrap;html=1;fontColor=#004A52;strokeColor=#FFFFFF;fillColor=#00636E;" parent="1" vertex="1">
                    <mxGeometry x="611.5" y="454" width="198" height="249" as="geometry"/>
                </mxCell>
                <mxCell id="117" value="Slave node #0" style="text;html=1;strokeColor=none;fillColor=none;align=center;verticalAlign=middle;whiteSpace=wrap;rounded=0;fontColor=#FFFFFF;" parent="1" vertex="1">
                    <mxGeometry x="666.88" y="456" width="87.25" height="30" as="geometry"/>
                </mxCell>
                <mxCell id="118" value="" style="rounded=1;whiteSpace=wrap;html=1;fontSize=19;fontColor=#FFFFFF;strokeColor=#FFFFFF;fillColor=#009999;" parent="1" vertex="1">
                    <mxGeometry x="621.5" y="489" width="176" height="91" as="geometry"/>
                </mxCell>
                <mxCell id="119" value="&lt;font style=&quot;font-size: 10px&quot;&gt;ImageTaskModule&lt;/font&gt;" style="text;html=1;strokeColor=none;fillColor=none;align=center;verticalAlign=middle;whiteSpace=wrap;rounded=0;fontColor=#FFFFFF;" parent="1" vertex="1">
                    <mxGeometry x="671.25" y="488" width="72.5" height="30" as="geometry"/>
                </mxCell>
                <mxCell id="120" value="" style="rounded=1;whiteSpace=wrap;html=1;fontSize=19;fontColor=#FFFFFF;strokeColor=#FFFFFF;fillColor=#00CCCC;" parent="1" vertex="1">
                    <mxGeometry x="622.5" y="589" width="176" height="98" as="geometry"/>
                </mxCell>
                <mxCell id="121" value="&lt;font style=&quot;font-size: 10px&quot;&gt;Yolov5TaskModule&lt;/font&gt;" style="text;html=1;strokeColor=none;fillColor=none;align=center;verticalAlign=middle;whiteSpace=wrap;rounded=0;fontColor=#FFFFFF;" parent="1" vertex="1">
                    <mxGeometry x="671.25" y="590" width="72.5" height="30" as="geometry"/>
                </mxCell>
                <mxCell id="122" value="" style="rounded=1;whiteSpace=wrap;html=1;fontColor=#004A52;strokeColor=#FFFFFF;fillColor=#00636E;" parent="1" vertex="1">
                    <mxGeometry x="608.5" y="714" width="198" height="135" as="geometry"/>
                </mxCell>
                <mxCell id="123" value="Slave node #0" style="text;html=1;strokeColor=none;fillColor=none;align=center;verticalAlign=middle;whiteSpace=wrap;rounded=0;fontColor=#FFFFFF;" parent="1" vertex="1">
                    <mxGeometry x="663.88" y="716" width="87.25" height="30" as="geometry"/>
                </mxCell>
                <mxCell id="124" value="" style="rounded=1;whiteSpace=wrap;html=1;fontSize=19;fontColor=#FFFFFF;strokeColor=#FFFFFF;fillColor=#009999;" parent="1" vertex="1">
                    <mxGeometry x="618.5" y="749" width="176" height="91" as="geometry"/>
                </mxCell>
                <mxCell id="125" value="&lt;font style=&quot;font-size: 10px&quot;&gt;ImageTaskModule&lt;/font&gt;" style="text;html=1;strokeColor=none;fillColor=none;align=center;verticalAlign=middle;whiteSpace=wrap;rounded=0;fontColor=#FFFFFF;" parent="1" vertex="1">
                    <mxGeometry x="668.25" y="748" width="72.5" height="30" as="geometry"/>
                </mxCell>
                <mxCell id="130" value="" style="rounded=1;whiteSpace=wrap;html=1;fontColor=#004A52;strokeColor=#FFFFFF;fillColor=#00636E;arcSize=11;" parent="1" vertex="1">
                    <mxGeometry x="242.5" y="470" width="334" height="377" as="geometry"/>
                </mxCell>
                <mxCell id="131" value="&lt;font style=&quot;font-size: 19px&quot;&gt;Server&lt;/font&gt;" style="text;html=1;strokeColor=none;fillColor=none;align=center;verticalAlign=middle;whiteSpace=wrap;rounded=0;fontColor=#FFFFFF;" parent="1" vertex="1">
                    <mxGeometry x="350" y="474" width="119" height="30" as="geometry"/>
                </mxCell>
                <mxCell id="139" value="" style="rounded=1;whiteSpace=wrap;html=1;fontSize=19;fontColor=#FFFFFF;strokeColor=#FFFFFF;fillColor=#00636E;" parent="1" vertex="1">
                    <mxGeometry x="256.5" y="515" width="305" height="60" as="geometry"/>
                </mxCell>
                <mxCell id="140" value="Server Controller" style="text;html=1;strokeColor=none;fillColor=none;align=center;verticalAlign=middle;whiteSpace=wrap;rounded=0;fontColor=#FFFFFF;" parent="1" vertex="1">
                    <mxGeometry x="333.5" y="515" width="150" height="30" as="geometry"/>
                </mxCell>
                <mxCell id="144" value="" style="rounded=1;whiteSpace=wrap;html=1;fontColor=#004A52;strokeColor=#FFFFFF;fillColor=#00636E;" parent="1" vertex="1">
                    <mxGeometry x="419.5" y="611.5" width="140" height="221.5" as="geometry"/>
                </mxCell>
                <mxCell id="145" value="Master node" style="text;html=1;strokeColor=none;fillColor=none;align=center;verticalAlign=middle;whiteSpace=wrap;rounded=0;fontColor=#FFFFFF;" parent="1" vertex="1">
                    <mxGeometry x="455.5" y="617" width="72.5" height="30" as="geometry"/>
                </mxCell>
                <mxCell id="146" value="" style="rounded=1;whiteSpace=wrap;html=1;fontColor=#004A52;strokeColor=#FFFFFF;fillColor=#00636E;" parent="1" vertex="1">
                    <mxGeometry x="612.5" y="455" width="198" height="249" as="geometry"/>
                </mxCell>
                <mxCell id="147" value="Slave node #0" style="text;html=1;strokeColor=none;fillColor=none;align=center;verticalAlign=middle;whiteSpace=wrap;rounded=0;fontColor=#FFFFFF;" parent="1" vertex="1">
                    <mxGeometry x="667.88" y="457" width="87.25" height="30" as="geometry"/>
                </mxCell>
                <mxCell id="148" value="" style="rounded=1;whiteSpace=wrap;html=1;fontSize=19;fontColor=#FFFFFF;strokeColor=#FFFFFF;fillColor=#009999;" parent="1" vertex="1">
                    <mxGeometry x="622.5" y="490" width="176" height="91" as="geometry"/>
                </mxCell>
                <mxCell id="149" value="&lt;font style=&quot;font-size: 10px&quot;&gt;ImageTaskModule&lt;/font&gt;" style="text;html=1;strokeColor=none;fillColor=none;align=center;verticalAlign=middle;whiteSpace=wrap;rounded=0;fontColor=#FFFFFF;" parent="1" vertex="1">
                    <mxGeometry x="672.25" y="489" width="72.5" height="30" as="geometry"/>
                </mxCell>
                <mxCell id="150" value="" style="rounded=1;whiteSpace=wrap;html=1;fontSize=19;fontColor=#FFFFFF;strokeColor=#FFFFFF;fillColor=#00CCCC;" parent="1" vertex="1">
                    <mxGeometry x="623.5" y="590" width="176" height="98" as="geometry"/>
                </mxCell>
                <mxCell id="151" value="&lt;font style=&quot;font-size: 10px&quot;&gt;Yolov5TaskModule&lt;/font&gt;" style="text;html=1;strokeColor=none;fillColor=none;align=center;verticalAlign=middle;whiteSpace=wrap;rounded=0;fontColor=#FFFFFF;" parent="1" vertex="1">
                    <mxGeometry x="672.25" y="591" width="72.5" height="30" as="geometry"/>
                </mxCell>
                <mxCell id="152" value="" style="rounded=1;whiteSpace=wrap;html=1;fontColor=#004A52;strokeColor=#FFFFFF;fillColor=#00636E;" parent="1" vertex="1">
                    <mxGeometry x="609.5" y="715" width="198" height="135" as="geometry"/>
                </mxCell>
                <mxCell id="153" value="Slave node #1" style="text;html=1;strokeColor=none;fillColor=none;align=center;verticalAlign=middle;whiteSpace=wrap;rounded=0;fontColor=#FFFFFF;" parent="1" vertex="1">
                    <mxGeometry x="664.88" y="717" width="87.25" height="30" as="geometry"/>
                </mxCell>
                <mxCell id="154" value="" style="rounded=1;whiteSpace=wrap;html=1;fontSize=19;fontColor=#FFFFFF;strokeColor=#FFFFFF;fillColor=#009999;" parent="1" vertex="1">
                    <mxGeometry x="619.5" y="750" width="176" height="91" as="geometry"/>
                </mxCell>
                <mxCell id="155" value="&lt;font style=&quot;font-size: 10px&quot;&gt;ImageTaskModule&lt;/font&gt;" style="text;html=1;strokeColor=none;fillColor=none;align=center;verticalAlign=middle;whiteSpace=wrap;rounded=0;fontColor=#FFFFFF;" parent="1" vertex="1">
                    <mxGeometry x="669.25" y="749" width="72.5" height="30" as="geometry"/>
                </mxCell>
                <mxCell id="156" value="&lt;font color=&quot;#004a52&quot; size=&quot;1&quot;&gt;&lt;b&gt;STEP 2: &lt;/b&gt;El servidor rutea internamenta las requests desde el módulo Service Server al inbox del módulo Master Node. Es entonces cuando la request se particiona en distintas tareas o trabajos según su tamaño, para finalmente ser almacenadas en la Inbox del Master node.&amp;nbsp;&lt;/font&gt;" style="text;html=1;strokeColor=none;fillColor=#4DB2BD;align=center;verticalAlign=middle;whiteSpace=wrap;rounded=0;fontSize=10;fontColor=#FFFFFF;gradientColor=none;" parent="1" vertex="1">
                    <mxGeometry x="23.5" y="467" width="200" height="109" as="geometry"/>
                </mxCell>
                <mxCell id="159" value="" style="rounded=1;whiteSpace=wrap;html=1;fontColor=#004A52;strokeColor=#FFFFFF;fillColor=#00636E;" parent="1" vertex="1">
                    <mxGeometry x="262.5" y="215" width="129" height="91" as="geometry"/>
                </mxCell>
                <mxCell id="160" value="Request inbox" style="text;html=1;strokeColor=none;fillColor=none;align=center;verticalAlign=middle;whiteSpace=wrap;rounded=0;fontColor=#FFFFFF;" parent="1" vertex="1">
                    <mxGeometry x="277.5" y="212" width="93" height="30" as="geometry"/>
                </mxCell>
                <mxCell id="161" value="" style="rounded=1;whiteSpace=wrap;html=1;fontColor=#004A52;strokeColor=#FFFFFF;fillColor=#00636E;" parent="1" vertex="1">
                    <mxGeometry x="262" y="311" width="129" height="68" as="geometry"/>
                </mxCell>
                <mxCell id="162" value="Response outbox" style="text;html=1;strokeColor=none;fillColor=none;align=center;verticalAlign=middle;whiteSpace=wrap;rounded=0;fontColor=#FFFFFF;" parent="1" vertex="1">
                    <mxGeometry x="277.5" y="309" width="104" height="30" as="geometry"/>
                </mxCell>
                <mxCell id="163" style="edgeStyle=none;html=1;exitX=1;exitY=0.5;exitDx=0;exitDy=0;entryX=0;entryY=0.5;entryDx=0;entryDy=0;fontSize=10;fontColor=#004A52;endArrow=blockThin;endFill=1;strokeWidth=2;strokeColor=#FFFFFF;" parent="1" source="64" target="71" edge="1">
                    <mxGeometry relative="1" as="geometry"/>
                </mxCell>
                <mxCell id="166" value="" style="rounded=1;whiteSpace=wrap;html=1;fontColor=#004A52;strokeColor=#FFFFFF;fillColor=#00636E;" parent="1" vertex="1">
                    <mxGeometry x="259.5" y="611.5" width="149" height="220.5" as="geometry"/>
                </mxCell>
                <mxCell id="167" value="Service Server" style="text;html=1;strokeColor=none;fillColor=none;align=center;verticalAlign=middle;whiteSpace=wrap;rounded=0;fontColor=#FFFFFF;" parent="1" vertex="1">
                    <mxGeometry x="292.5" y="615.5" width="93" height="30" as="geometry"/>
                </mxCell>
                <mxCell id="168" value="" style="rounded=1;whiteSpace=wrap;html=1;fontColor=#004A52;strokeColor=#FFFFFF;fillColor=#00636E;" parent="1" vertex="1">
                    <mxGeometry x="268.5" y="647" width="129" height="110" as="geometry"/>
                </mxCell>
                <mxCell id="187" style="edgeStyle=none;html=1;exitX=0.5;exitY=0;exitDx=0;exitDy=0;entryX=0.5;entryY=0;entryDx=0;entryDy=0;fontSize=10;fontColor=#004A52;endArrow=open;endFill=0;strokeWidth=2;dashed=1;strokeColor=#FFFFFF;" parent="1" source="166" target="144" edge="1">
                    <mxGeometry relative="1" as="geometry">
                        <Array as="points">
                            <mxPoint x="335.5" y="555"/>
                            <mxPoint x="489.5" y="554"/>
                        </Array>
                    </mxGeometry>
                </mxCell>
                <mxCell id="169" value="Request inbox" style="text;html=1;strokeColor=none;fillColor=none;align=center;verticalAlign=middle;whiteSpace=wrap;rounded=0;fontColor=#FFFFFF;" parent="1" vertex="1">
                    <mxGeometry x="286.5" y="649" width="93" height="30" as="geometry"/>
                </mxCell>
                <mxCell id="170" value="" style="rounded=1;whiteSpace=wrap;html=1;fontColor=#004A52;strokeColor=#FFFFFF;fillColor=#00636E;" parent="1" vertex="1">
                    <mxGeometry x="270.5" y="763" width="129" height="53" as="geometry"/>
                </mxCell>
                <mxCell id="188" style="edgeStyle=none;html=1;exitX=1;exitY=0.5;exitDx=0;exitDy=0;entryX=0;entryY=0.5;entryDx=0;entryDy=0;dashed=1;fontSize=10;fontColor=#004A52;endArrow=none;endFill=0;strokeWidth=2;strokeColor=#FFFFFF;" parent="1" source="171" target="166" edge="1">
                    <mxGeometry relative="1" as="geometry"/>
                </mxCell>
                <mxCell id="171" value="" style="rounded=1;whiteSpace=wrap;html=1;fontColor=#004A52;strokeColor=#FFFFFF;fillColor=#00636E;" parent="1" vertex="1">
                    <mxGeometry x="32.5" y="668.75" width="120" height="107" as="geometry"/>
                </mxCell>
                <mxCell id="174" value="Client #0" style="text;html=1;strokeColor=none;fillColor=none;align=center;verticalAlign=middle;whiteSpace=wrap;rounded=0;fontColor=#FFFFFF;" parent="1" vertex="1">
                    <mxGeometry x="61.5" y="669.75" width="60" height="30" as="geometry"/>
                </mxCell>
                <mxCell id="177" value="Request #A" style="rounded=1;whiteSpace=wrap;html=1;fontColor=#ffffff;fillColor=#009999;strokeColor=#006EAF;arcSize=22;" parent="1" vertex="1">
                    <mxGeometry x="274.5" y="237" width="107" height="28" as="geometry"/>
                </mxCell>
                <mxCell id="178" value="Request #B" style="rounded=1;whiteSpace=wrap;html=1;fontColor=#ffffff;fillColor=#00CCCC;strokeColor=#FFFFFF;arcSize=22;" parent="1" vertex="1">
                    <mxGeometry x="274" y="271.25" width="107" height="28" as="geometry"/>
                </mxCell>
                <mxCell id="179" value="" style="rounded=1;whiteSpace=wrap;html=1;fontColor=#004A52;strokeColor=#FFFFFF;fillColor=#00636E;" parent="1" vertex="1">
                    <mxGeometry x="425.5" y="648" width="129" height="111" as="geometry"/>
                </mxCell>
                <mxCell id="180" value="" style="rounded=1;whiteSpace=wrap;html=1;fontColor=#004A52;strokeColor=#FFFFFF;fillColor=#00636E;" parent="1" vertex="1">
                    <mxGeometry x="425" y="763" width="129" height="55" as="geometry"/>
                </mxCell>
                <mxCell id="181" value="Task outbox" style="text;html=1;strokeColor=none;fillColor=none;align=center;verticalAlign=middle;whiteSpace=wrap;rounded=0;fontColor=#FFFFFF;" parent="1" vertex="1">
                    <mxGeometry x="443.5" y="762" width="93" height="30" as="geometry"/>
                </mxCell>
                <mxCell id="182" value="Task inbox" style="text;html=1;strokeColor=none;fillColor=none;align=center;verticalAlign=middle;whiteSpace=wrap;rounded=0;fontColor=#FFFFFF;" parent="1" vertex="1">
                    <mxGeometry x="443.5" y="645.5" width="93" height="30" as="geometry"/>
                </mxCell>
                <mxCell id="183" value="Job#B0" style="rounded=1;whiteSpace=wrap;html=1;fontColor=#ffffff;fillColor=#00CCCC;strokeColor=#FFFFFF;arcSize=22;" parent="1" vertex="1">
                    <mxGeometry x="494.25" y="700" width="48.75" height="25" as="geometry"/>
                </mxCell>
                <mxCell id="184" value="Job#A0" style="rounded=1;whiteSpace=wrap;html=1;fontColor=#ffffff;fillColor=#009999;strokeColor=#006EAF;arcSize=22;" parent="1" vertex="1">
                    <mxGeometry x="436" y="670" width="50.5" height="26" as="geometry"/>
                </mxCell>
                <mxCell id="185" value="Request #A" style="rounded=1;whiteSpace=wrap;html=1;fontColor=#ffffff;fillColor=#009999;strokeColor=#FFFFFF;arcSize=22;dashed=1;strokeWidth=2;gradientColor=none;gradientDirection=east;shadow=0;glass=0;sketch=0;" parent="1" vertex="1">
                    <mxGeometry x="279.5" y="682" width="107" height="28" as="geometry"/>
                </mxCell>
                <mxCell id="186" value="Request #B" style="rounded=1;whiteSpace=wrap;html=1;fontColor=#ffffff;fillColor=#00CCCC;strokeColor=#FFFFFF;arcSize=22;dashed=1;strokeWidth=2;sketch=0;" parent="1" vertex="1">
                    <mxGeometry x="279.5" y="716" width="107" height="28" as="geometry"/>
                </mxCell>
                <mxCell id="189" value="" style="rounded=1;whiteSpace=wrap;html=1;dashed=1;fontSize=10;fontColor=#004A52;strokeColor=#4DB2BD;fillColor=none;gradientColor=none;arcSize=8;perimeterSpacing=0;strokeWidth=2;" parent="1" vertex="1">
                    <mxGeometry x="4.5" y="879" width="810" height="440" as="geometry"/>
                </mxCell>
                <mxCell id="191" value="&lt;font style=&quot;font-size: 19px&quot;&gt;Server&lt;/font&gt;" style="text;html=1;strokeColor=none;fillColor=none;align=center;verticalAlign=middle;whiteSpace=wrap;rounded=0;fontColor=#FFFFFF;" parent="1" vertex="1">
                    <mxGeometry x="349" y="908" width="119" height="30" as="geometry"/>
                </mxCell>
                <mxCell id="192" style="edgeStyle=none;html=1;exitX=0.75;exitY=0;exitDx=0;exitDy=0;entryX=0.301;entryY=1.008;entryDx=0;entryDy=0;entryPerimeter=0;fontSize=19;fontColor=#FFFFFF;endArrow=blockThin;endFill=1;strokeWidth=2;" parent="1" source="193" target="197" edge="1">
                    <mxGeometry relative="1" as="geometry"/>
                </mxCell>
                <mxCell id="193" value="" style="rounded=1;whiteSpace=wrap;html=1;fontColor=#004A52;strokeColor=#FFFFFF;fillColor=#00636E;" parent="1" vertex="1">
                    <mxGeometry x="256.5" y="1048" width="120" height="107" as="geometry"/>
                </mxCell>
                <mxCell id="194" value="Service Server" style="text;html=1;strokeColor=none;fillColor=none;align=center;verticalAlign=middle;whiteSpace=wrap;rounded=0;fontColor=#FFFFFF;" parent="1" vertex="1">
                    <mxGeometry x="270.5" y="1052" width="93" height="30" as="geometry"/>
                </mxCell>
                <mxCell id="195" style="edgeStyle=none;html=1;exitX=0.105;exitY=0.994;exitDx=0;exitDy=0;entryX=0.25;entryY=0;entryDx=0;entryDy=0;fontSize=19;fontColor=#FFFFFF;endArrow=none;endFill=0;strokeWidth=2;exitPerimeter=0;" parent="1" source="197" target="193" edge="1">
                    <mxGeometry relative="1" as="geometry"/>
                </mxCell>
                <mxCell id="196" style="edgeStyle=none;html=1;exitX=0.701;exitY=1.008;exitDx=0;exitDy=0;entryX=0.25;entryY=0;entryDx=0;entryDy=0;fontSize=19;fontColor=#FFFFFF;endArrow=blockThin;endFill=1;strokeWidth=2;exitPerimeter=0;" parent="1" source="197" target="200" edge="1">
                    <mxGeometry relative="1" as="geometry"/>
                </mxCell>
                <mxCell id="197" value="" style="rounded=1;whiteSpace=wrap;html=1;fontSize=19;fontColor=#FFFFFF;strokeColor=#FFFFFF;fillColor=#00636E;" parent="1" vertex="1">
                    <mxGeometry x="255.5" y="949" width="305" height="60" as="geometry"/>
                </mxCell>
                <mxCell id="198" value="Server Controller" style="text;html=1;strokeColor=none;fillColor=none;align=center;verticalAlign=middle;whiteSpace=wrap;rounded=0;fontColor=#FFFFFF;" parent="1" vertex="1">
                    <mxGeometry x="332.5" y="949" width="150" height="30" as="geometry"/>
                </mxCell>
                <mxCell id="199" style="edgeStyle=none;html=1;exitX=0.75;exitY=0;exitDx=0;exitDy=0;entryX=0.896;entryY=0.988;entryDx=0;entryDy=0;entryPerimeter=0;fontSize=19;fontColor=#FFFFFF;endArrow=blockThin;endFill=1;strokeWidth=2;" parent="1" source="200" target="197" edge="1">
                    <mxGeometry relative="1" as="geometry"/>
                </mxCell>
                <mxCell id="200" value="" style="rounded=1;whiteSpace=wrap;html=1;fontColor=#004A52;strokeColor=#FFFFFF;fillColor=#00636E;" parent="1" vertex="1">
                    <mxGeometry x="438.5" y="1045.5" width="120" height="107" as="geometry"/>
                </mxCell>
                <mxCell id="201" value="Master node" style="text;html=1;strokeColor=none;fillColor=none;align=center;verticalAlign=middle;whiteSpace=wrap;rounded=0;fontColor=#FFFFFF;" parent="1" vertex="1">
                    <mxGeometry x="462.25" y="1052" width="72.5" height="30" as="geometry"/>
                </mxCell>
                <mxCell id="202" value="" style="rounded=1;whiteSpace=wrap;html=1;fontColor=#004A52;strokeColor=#FFFFFF;fillColor=#00636E;" parent="1" vertex="1">
                    <mxGeometry x="611.5" y="889" width="198" height="249" as="geometry"/>
                </mxCell>
                <mxCell id="203" value="Slave node #0" style="text;html=1;strokeColor=none;fillColor=none;align=center;verticalAlign=middle;whiteSpace=wrap;rounded=0;fontColor=#FFFFFF;" parent="1" vertex="1">
                    <mxGeometry x="666.88" y="891" width="87.25" height="30" as="geometry"/>
                </mxCell>
                <mxCell id="204" value="" style="rounded=1;whiteSpace=wrap;html=1;fontSize=19;fontColor=#FFFFFF;strokeColor=#FFFFFF;fillColor=#009999;" parent="1" vertex="1">
                    <mxGeometry x="621.5" y="924" width="176" height="91" as="geometry"/>
                </mxCell>
                <mxCell id="205" value="&lt;font style=&quot;font-size: 10px&quot;&gt;ImageTaskModule&lt;/font&gt;" style="text;html=1;strokeColor=none;fillColor=none;align=center;verticalAlign=middle;whiteSpace=wrap;rounded=0;fontColor=#FFFFFF;" parent="1" vertex="1">
                    <mxGeometry x="671.25" y="923" width="72.5" height="30" as="geometry"/>
                </mxCell>
                <mxCell id="206" value="" style="rounded=1;whiteSpace=wrap;html=1;fontSize=19;fontColor=#FFFFFF;strokeColor=#FFFFFF;fillColor=#00CCCC;" parent="1" vertex="1">
                    <mxGeometry x="622.5" y="1024" width="176" height="98" as="geometry"/>
                </mxCell>
                <mxCell id="207" value="&lt;font style=&quot;font-size: 10px&quot;&gt;Yolov5TaskModule&lt;/font&gt;" style="text;html=1;strokeColor=none;fillColor=none;align=center;verticalAlign=middle;whiteSpace=wrap;rounded=0;fontColor=#FFFFFF;" parent="1" vertex="1">
                    <mxGeometry x="671.25" y="1025" width="72.5" height="30" as="geometry"/>
                </mxCell>
                <mxCell id="208" value="" style="rounded=1;whiteSpace=wrap;html=1;fontColor=#004A52;strokeColor=#FFFFFF;fillColor=#00636E;" parent="1" vertex="1">
                    <mxGeometry x="608.5" y="1149" width="198" height="135" as="geometry"/>
                </mxCell>
                <mxCell id="209" value="Slave node #0" style="text;html=1;strokeColor=none;fillColor=none;align=center;verticalAlign=middle;whiteSpace=wrap;rounded=0;fontColor=#FFFFFF;" parent="1" vertex="1">
                    <mxGeometry x="663.88" y="1151" width="87.25" height="30" as="geometry"/>
                </mxCell>
                <mxCell id="210" value="" style="rounded=1;whiteSpace=wrap;html=1;fontSize=19;fontColor=#FFFFFF;strokeColor=#FFFFFF;fillColor=#009999;" parent="1" vertex="1">
                    <mxGeometry x="618.5" y="1184" width="176" height="91" as="geometry"/>
                </mxCell>
                <mxCell id="211" value="&lt;font style=&quot;font-size: 10px&quot;&gt;ImageTaskModule&lt;/font&gt;" style="text;html=1;strokeColor=none;fillColor=none;align=center;verticalAlign=middle;whiteSpace=wrap;rounded=0;fontColor=#FFFFFF;" parent="1" vertex="1">
                    <mxGeometry x="668.25" y="1183" width="72.5" height="30" as="geometry"/>
                </mxCell>
                <mxCell id="212" value="" style="rounded=1;whiteSpace=wrap;html=1;fontColor=#004A52;strokeColor=#FFFFFF;fillColor=#00636E;arcSize=11;" parent="1" vertex="1">
                    <mxGeometry x="242.5" y="905" width="334" height="377" as="geometry"/>
                </mxCell>
                <mxCell id="213" value="&lt;font style=&quot;font-size: 19px&quot;&gt;Server&lt;/font&gt;" style="text;html=1;strokeColor=none;fillColor=none;align=center;verticalAlign=middle;whiteSpace=wrap;rounded=0;fontColor=#FFFFFF;" parent="1" vertex="1">
                    <mxGeometry x="350" y="909" width="119" height="30" as="geometry"/>
                </mxCell>
                <mxCell id="214" value="" style="rounded=1;whiteSpace=wrap;html=1;fontSize=19;fontColor=#FFFFFF;strokeColor=#FFFFFF;fillColor=#00636E;" parent="1" vertex="1">
                    <mxGeometry x="256.5" y="950" width="305" height="60" as="geometry"/>
                </mxCell>
                <mxCell id="215" value="Server Controller" style="text;html=1;strokeColor=none;fillColor=none;align=center;verticalAlign=middle;whiteSpace=wrap;rounded=0;fontColor=#FFFFFF;" parent="1" vertex="1">
                    <mxGeometry x="333.5" y="950" width="150" height="30" as="geometry"/>
                </mxCell>
                <mxCell id="216" value="" style="rounded=1;whiteSpace=wrap;html=1;fontColor=#004A52;strokeColor=#FFFFFF;fillColor=#00636E;" parent="1" vertex="1">
                    <mxGeometry x="419.5" y="1046.5" width="140" height="221.5" as="geometry"/>
                </mxCell>
                <mxCell id="217" value="Master node" style="text;html=1;strokeColor=none;fillColor=none;align=center;verticalAlign=middle;whiteSpace=wrap;rounded=0;fontColor=#FFFFFF;" parent="1" vertex="1">
                    <mxGeometry x="453.75" y="1052" width="72.5" height="30" as="geometry"/>
                </mxCell>
                <mxCell id="218" value="" style="rounded=1;whiteSpace=wrap;html=1;fontColor=#004A52;strokeColor=#FFFFFF;fillColor=#00636E;" parent="1" vertex="1">
                    <mxGeometry x="612.5" y="890" width="198" height="249" as="geometry"/>
                </mxCell>
                <mxCell id="219" value="Slave node #0" style="text;html=1;strokeColor=none;fillColor=none;align=center;verticalAlign=middle;whiteSpace=wrap;rounded=0;fontColor=#FFFFFF;" parent="1" vertex="1">
                    <mxGeometry x="667.88" y="892" width="87.25" height="30" as="geometry"/>
                </mxCell>
                <mxCell id="220" value="" style="rounded=1;whiteSpace=wrap;html=1;fontSize=19;fontColor=#FFFFFF;strokeColor=#FFFFFF;fillColor=#009999;" parent="1" vertex="1">
                    <mxGeometry x="622.5" y="925" width="176" height="91" as="geometry"/>
                </mxCell>
                <mxCell id="221" value="&lt;font style=&quot;font-size: 10px&quot;&gt;ImageTaskModule&lt;/font&gt;" style="text;html=1;strokeColor=none;fillColor=none;align=center;verticalAlign=middle;whiteSpace=wrap;rounded=0;fontColor=#FFFFFF;" parent="1" vertex="1">
                    <mxGeometry x="672.25" y="924" width="72.5" height="30" as="geometry"/>
                </mxCell>
                <mxCell id="222" value="" style="rounded=1;whiteSpace=wrap;html=1;fontSize=19;fontColor=#FFFFFF;strokeColor=#FFFFFF;fillColor=#00CCCC;" parent="1" vertex="1">
                    <mxGeometry x="623.5" y="1025" width="176" height="98" as="geometry"/>
                </mxCell>
                <mxCell id="223" value="&lt;font style=&quot;font-size: 10px&quot;&gt;Yolov5TaskModule&lt;/font&gt;" style="text;html=1;strokeColor=none;fillColor=none;align=center;verticalAlign=middle;whiteSpace=wrap;rounded=0;fontColor=#FFFFFF;" parent="1" vertex="1">
                    <mxGeometry x="672.25" y="1026" width="72.5" height="30" as="geometry"/>
                </mxCell>
                <mxCell id="224" value="" style="rounded=1;whiteSpace=wrap;html=1;fontColor=#004A52;strokeColor=#FFFFFF;fillColor=#00636E;" parent="1" vertex="1">
                    <mxGeometry x="609.5" y="1150" width="198" height="135" as="geometry"/>
                </mxCell>
                <mxCell id="225" value="Slave node #1" style="text;html=1;strokeColor=none;fillColor=none;align=center;verticalAlign=middle;whiteSpace=wrap;rounded=0;fontColor=#FFFFFF;" parent="1" vertex="1">
                    <mxGeometry x="664.88" y="1152" width="87.25" height="30" as="geometry"/>
                </mxCell>
                <mxCell id="226" value="" style="rounded=1;whiteSpace=wrap;html=1;fontSize=19;fontColor=#FFFFFF;strokeColor=#FFFFFF;fillColor=#009999;" parent="1" vertex="1">
                    <mxGeometry x="619.5" y="1185" width="176" height="91" as="geometry"/>
                </mxCell>
                <mxCell id="227" value="&lt;font style=&quot;font-size: 10px&quot;&gt;ImageTaskModule&lt;/font&gt;" style="text;html=1;strokeColor=none;fillColor=none;align=center;verticalAlign=middle;whiteSpace=wrap;rounded=0;fontColor=#FFFFFF;" parent="1" vertex="1">
                    <mxGeometry x="669.25" y="1184" width="72.5" height="30" as="geometry"/>
                </mxCell>
                <mxCell id="228" value="&lt;font color=&quot;#004a52&quot; size=&quot;1&quot;&gt;&lt;b&gt;STEP 3: &lt;/b&gt;El nodo maestro envía las particiones a los distintos nodos esclavos conectados. Estos trabajos se reciben en la bandeja de entrada de cada TaskModule encargado de procesar esa tarea.&lt;/font&gt;" style="text;html=1;strokeColor=none;fillColor=#4DB2BD;align=center;verticalAlign=middle;whiteSpace=wrap;rounded=0;fontSize=10;fontColor=#FFFFFF;gradientColor=none;" parent="1" vertex="1">
                    <mxGeometry x="21.5" y="918" width="200" height="109" as="geometry"/>
                </mxCell>
                <mxCell id="229" value="" style="rounded=1;whiteSpace=wrap;html=1;fontColor=#004A52;strokeColor=#FFFFFF;fillColor=#00636E;" parent="1" vertex="1">
                    <mxGeometry x="259.5" y="1046.5" width="149" height="220.5" as="geometry"/>
                </mxCell>
                <mxCell id="230" value="Service Server" style="text;html=1;strokeColor=none;fillColor=none;align=center;verticalAlign=middle;whiteSpace=wrap;rounded=0;fontColor=#FFFFFF;" parent="1" vertex="1">
                    <mxGeometry x="292.5" y="1050.5" width="93" height="30" as="geometry"/>
                </mxCell>
                <mxCell id="231" value="" style="rounded=1;whiteSpace=wrap;html=1;fontColor=#004A52;strokeColor=#FFFFFF;fillColor=#00636E;" parent="1" vertex="1">
                    <mxGeometry x="268.5" y="1082" width="129" height="110" as="geometry"/>
                </mxCell>
                <mxCell id="233" value="Request inbox" style="text;html=1;strokeColor=none;fillColor=none;align=center;verticalAlign=middle;whiteSpace=wrap;rounded=0;fontColor=#FFFFFF;" parent="1" vertex="1">
                    <mxGeometry x="286.5" y="1084" width="93" height="30" as="geometry"/>
                </mxCell>
                <mxCell id="234" value="" style="rounded=1;whiteSpace=wrap;html=1;fontColor=#004A52;strokeColor=#FFFFFF;fillColor=#00636E;" parent="1" vertex="1">
                    <mxGeometry x="270.5" y="1198" width="129" height="53" as="geometry"/>
                </mxCell>
                <mxCell id="235" style="edgeStyle=none;html=1;exitX=1;exitY=0.5;exitDx=0;exitDy=0;entryX=0;entryY=0.5;entryDx=0;entryDy=0;dashed=1;fontSize=10;fontColor=#004A52;endArrow=none;endFill=0;strokeWidth=2;fillColor=#d80073;strokeColor=#FFFFFF;" parent="1" source="236" target="229" edge="1">
                    <mxGeometry relative="1" as="geometry"/>
                </mxCell>
                <mxCell id="236" value="" style="rounded=1;whiteSpace=wrap;html=1;fontColor=#004A52;strokeColor=#FFFFFF;fillColor=#00636E;" parent="1" vertex="1">
                    <mxGeometry x="32.5" y="1103.75" width="120" height="107" as="geometry"/>
                </mxCell>
                <mxCell id="237" value="Client #0" style="text;html=1;strokeColor=none;fillColor=none;align=center;verticalAlign=middle;whiteSpace=wrap;rounded=0;fontColor=#FFFFFF;" parent="1" vertex="1">
                    <mxGeometry x="61.5" y="1104.75" width="60" height="30" as="geometry"/>
                </mxCell>
                <mxCell id="240" value="" style="rounded=1;whiteSpace=wrap;html=1;fontColor=#004A52;strokeColor=#FFFFFF;fillColor=#00636E;arcSize=19;" parent="1" vertex="1">
                    <mxGeometry x="425" y="1198" width="129" height="55" as="geometry"/>
                </mxCell>
                <mxCell id="241" value="Task outbox" style="text;html=1;strokeColor=none;fillColor=none;align=center;verticalAlign=middle;whiteSpace=wrap;rounded=0;fontColor=#FFFFFF;" parent="1" vertex="1">
                    <mxGeometry x="443.5" y="1197" width="93" height="30" as="geometry"/>
                </mxCell>
                <mxCell id="249" value="Job#A1" style="rounded=1;whiteSpace=wrap;html=1;fontColor=#ffffff;fillColor=#009999;strokeColor=#006EAF;arcSize=22;" parent="1" vertex="1">
                    <mxGeometry x="492.5" y="669.75" width="53" height="26" as="geometry"/>
                </mxCell>
                <mxCell id="250" value="Job#A2" style="rounded=1;whiteSpace=wrap;html=1;fontColor=#ffffff;fillColor=#009999;strokeColor=#006EAF;arcSize=22;" parent="1" vertex="1">
                    <mxGeometry x="436" y="699" width="49" height="26" as="geometry"/>
                </mxCell>
                <mxCell id="251" value="Job#B1" style="rounded=1;whiteSpace=wrap;html=1;fontColor=#ffffff;fillColor=#00CCCC;strokeColor=#FFFFFF;arcSize=22;" parent="1" vertex="1">
                    <mxGeometry x="436.5" y="729" width="48.75" height="25" as="geometry"/>
                </mxCell>
                <mxCell id="268" style="edgeStyle=none;html=1;exitX=1;exitY=0.25;exitDx=0;exitDy=0;entryX=0;entryY=0.5;entryDx=0;entryDy=0;fontSize=10;fontColor=#004A52;endArrow=classic;endFill=1;strokeWidth=2;fillColor=#d80073;strokeColor=#FFFFFF;" parent="1" source="252" target="220" edge="1">
                    <mxGeometry relative="1" as="geometry"/>
                </mxCell>
                <mxCell id="269" style="edgeStyle=none;html=1;exitX=1;exitY=0.75;exitDx=0;exitDy=0;entryX=0;entryY=0.5;entryDx=0;entryDy=0;fontSize=10;fontColor=#004A52;endArrow=classic;endFill=1;strokeWidth=2;fillColor=#d80073;strokeColor=#FFFFFF;" parent="1" source="252" target="226" edge="1">
                    <mxGeometry relative="1" as="geometry"/>
                </mxCell>
                <mxCell id="252" value="" style="rounded=1;whiteSpace=wrap;html=1;fontColor=#004A52;strokeColor=#FFFFFF;fillColor=#00636E;" parent="1" vertex="1">
                    <mxGeometry x="425" y="1081" width="129" height="111" as="geometry"/>
                </mxCell>
                <mxCell id="253" value="Task inbox" style="text;html=1;strokeColor=none;fillColor=none;align=center;verticalAlign=middle;whiteSpace=wrap;rounded=0;fontColor=#FFFFFF;" parent="1" vertex="1">
                    <mxGeometry x="443" y="1078.5" width="93" height="30" as="geometry"/>
                </mxCell>
                <mxCell id="254" value="Job#B0" style="rounded=1;whiteSpace=wrap;html=1;fontColor=#ffffff;fillColor=#00CCCC;strokeColor=#FFFFFF;arcSize=22;dashed=1;strokeWidth=2;" parent="1" vertex="1">
                    <mxGeometry x="493.75" y="1133" width="48.75" height="25" as="geometry"/>
                </mxCell>
                <mxCell id="255" value="Job#A0" style="rounded=1;whiteSpace=wrap;html=1;fontColor=#ffffff;fillColor=#009999;strokeColor=#006EAF;arcSize=22;dashed=1;strokeWidth=2;" parent="1" vertex="1">
                    <mxGeometry x="435.5" y="1103" width="50.5" height="26" as="geometry"/>
                </mxCell>
                <mxCell id="256" value="Job#A1" style="rounded=1;whiteSpace=wrap;html=1;fontColor=#ffffff;fillColor=#009999;strokeColor=#006EAF;arcSize=22;dashed=1;strokeWidth=2;" parent="1" vertex="1">
                    <mxGeometry x="492" y="1102.75" width="53" height="26" as="geometry"/>
                </mxCell>
                <mxCell id="257" value="Job#A2" style="rounded=1;whiteSpace=wrap;html=1;fontColor=#ffffff;fillColor=#009999;strokeColor=#006EAF;arcSize=22;strokeWidth=2;dashed=1;" parent="1" vertex="1">
                    <mxGeometry x="435.5" y="1132" width="49" height="26" as="geometry"/>
                </mxCell>
                <mxCell id="271" value="" style="rounded=1;whiteSpace=wrap;html=1;shadow=0;glass=0;sketch=0;fontSize=10;fontColor=#004A52;strokeColor=#FFFFFF;strokeWidth=1;fillColor=none;gradientColor=none;gradientDirection=east;" parent="1" vertex="1">
                    <mxGeometry x="630.13" y="953" width="77.37" height="55" as="geometry"/>
                </mxCell>
                <mxCell id="258" value="Job#B1" style="rounded=1;whiteSpace=wrap;html=1;fontColor=#ffffff;fillColor=#00CCCC;strokeColor=#FFFFFF;arcSize=22;dashed=1;strokeWidth=2;" parent="1" vertex="1">
                    <mxGeometry x="436" y="1162" width="48.75" height="25" as="geometry"/>
                </mxCell>
                <mxCell id="260" value="Job#A1" style="rounded=1;whiteSpace=wrap;html=1;fontColor=#ffffff;fillColor=#009999;strokeColor=#006EAF;arcSize=22;strokeWidth=2;" parent="1" vertex="1">
                    <mxGeometry x="634.12" y="976" width="53" height="26" as="geometry"/>
                </mxCell>
                <mxCell id="266" style="edgeStyle=none;html=1;exitX=1;exitY=0.5;exitDx=0;exitDy=0;entryX=0;entryY=0.5;entryDx=0;entryDy=0;fontSize=10;fontColor=#004A52;endArrow=classic;endFill=1;strokeWidth=2;fillColor=#d80073;strokeColor=#FFFFFF;" parent="1" source="252" target="222" edge="1">
                    <mxGeometry relative="1" as="geometry"/>
                </mxCell>
                <mxCell id="273" value="&lt;span style=&quot;font-size: 10px&quot;&gt;Task inbox&lt;/span&gt;" style="text;html=1;strokeColor=none;fillColor=none;align=center;verticalAlign=middle;whiteSpace=wrap;rounded=0;fontColor=#FFFFFF;" parent="1" vertex="1">
                    <mxGeometry x="632.57" y="948" width="72.5" height="30" as="geometry"/>
                </mxCell>
                <mxCell id="274" value="" style="rounded=1;whiteSpace=wrap;html=1;shadow=0;glass=0;sketch=0;fontSize=10;fontColor=#004A52;strokeColor=#FFFFFF;strokeWidth=1;fillColor=none;gradientColor=none;gradientDirection=east;" parent="1" vertex="1">
                    <mxGeometry x="715.5" y="953" width="77.37" height="55" as="geometry"/>
                </mxCell>
                <mxCell id="275" value="&lt;span style=&quot;font-size: 10px&quot;&gt;Task outbox&lt;/span&gt;" style="text;html=1;strokeColor=none;fillColor=none;align=center;verticalAlign=middle;whiteSpace=wrap;rounded=0;fontColor=#FFFFFF;" parent="1" vertex="1">
                    <mxGeometry x="717.94" y="948" width="72.5" height="30" as="geometry"/>
                </mxCell>
                <mxCell id="276" value="" style="rounded=1;whiteSpace=wrap;html=1;shadow=0;glass=0;sketch=0;fontSize=10;fontColor=#004A52;strokeColor=#FFFFFF;strokeWidth=1;fillColor=none;gradientColor=none;gradientDirection=east;" parent="1" vertex="1">
                    <mxGeometry x="631.76" y="1059" width="113.74" height="55" as="geometry"/>
                </mxCell>
                <mxCell id="277" value="&lt;span style=&quot;font-size: 10px&quot;&gt;Task inbox&lt;/span&gt;" style="text;html=1;strokeColor=none;fillColor=none;align=center;verticalAlign=middle;whiteSpace=wrap;rounded=0;fontColor=#FFFFFF;" parent="1" vertex="1">
                    <mxGeometry x="658.5" y="1052" width="72.5" height="30" as="geometry"/>
                </mxCell>
                <mxCell id="278" value="" style="rounded=1;whiteSpace=wrap;html=1;shadow=0;glass=0;sketch=0;fontSize=10;fontColor=#004A52;strokeColor=#FFFFFF;strokeWidth=1;fillColor=none;gradientColor=none;gradientDirection=east;" parent="1" vertex="1">
                    <mxGeometry x="748.5" y="1060" width="44.37" height="55" as="geometry"/>
                </mxCell>
                <mxCell id="262" value="Job#B0" style="rounded=1;whiteSpace=wrap;html=1;fontColor=#ffffff;fillColor=#00CCCC;strokeColor=#FFFFFF;arcSize=22;strokeWidth=2;" parent="1" vertex="1">
                    <mxGeometry x="636.24" y="1078.5" width="48.75" height="25" as="geometry"/>
                </mxCell>
                <mxCell id="263" value="Job#B1" style="rounded=1;whiteSpace=wrap;html=1;fontColor=#ffffff;fillColor=#00CCCC;strokeColor=#FFFFFF;arcSize=22;strokeWidth=2;" parent="1" vertex="1">
                    <mxGeometry x="690.75" y="1079.75" width="48.75" height="25" as="geometry"/>
                </mxCell>
                <mxCell id="279" value="&lt;span style=&quot;font-size: 10px&quot;&gt;Task outbox&lt;/span&gt;" style="text;html=1;strokeColor=none;fillColor=none;align=center;verticalAlign=middle;whiteSpace=wrap;rounded=0;fontColor=#FFFFFF;rotation=0;" parent="1" vertex="1">
                    <mxGeometry x="742.5" y="1060" width="55.75" height="17" as="geometry"/>
                </mxCell>
                <mxCell id="280" value="" style="rounded=1;whiteSpace=wrap;html=1;shadow=0;glass=0;sketch=0;fontSize=10;fontColor=#004A52;strokeColor=#FFFFFF;strokeWidth=1;fillColor=none;gradientColor=none;gradientDirection=east;" parent="1" vertex="1">
                    <mxGeometry x="625.13" y="1210" width="114.37" height="55" as="geometry"/>
                </mxCell>
                <mxCell id="259" value="Job#A0" style="rounded=1;whiteSpace=wrap;html=1;fontColor=#ffffff;fillColor=#009999;strokeColor=#006EAF;arcSize=22;strokeWidth=2;" parent="1" vertex="1">
                    <mxGeometry x="628.5" y="1228" width="50.5" height="26" as="geometry"/>
                </mxCell>
                <mxCell id="282" value="" style="rounded=1;whiteSpace=wrap;html=1;shadow=0;glass=0;sketch=0;fontSize=10;fontColor=#004A52;strokeColor=#FFFFFF;strokeWidth=1;fillColor=none;gradientColor=none;gradientDirection=east;" parent="1" vertex="1">
                    <mxGeometry x="742.5" y="1210" width="45.37" height="55" as="geometry"/>
                </mxCell>
                <mxCell id="283" value="&lt;span style=&quot;font-size: 10px&quot;&gt;Task outbox&lt;/span&gt;" style="text;html=1;strokeColor=none;fillColor=none;align=center;verticalAlign=middle;whiteSpace=wrap;rounded=0;fontColor=#FFFFFF;" parent="1" vertex="1">
                    <mxGeometry x="718.5" y="1205" width="72.5" height="30" as="geometry"/>
                </mxCell>
                <mxCell id="281" value="&lt;span style=&quot;font-size: 10px&quot;&gt;Task inbox&lt;/span&gt;" style="text;html=1;strokeColor=none;fillColor=none;align=center;verticalAlign=middle;whiteSpace=wrap;rounded=0;fontColor=#FFFFFF;" parent="1" vertex="1">
                    <mxGeometry x="627.5" y="1205" width="72.5" height="30" as="geometry"/>
                </mxCell>
                <mxCell id="261" value="Job#A2" style="rounded=1;whiteSpace=wrap;html=1;fontColor=#ffffff;fillColor=#009999;strokeColor=#006EAF;arcSize=22;strokeWidth=2;" parent="1" vertex="1">
                    <mxGeometry x="685" y="1229" width="49" height="26" as="geometry"/>
                </mxCell>
                <mxCell id="284" value="" style="rounded=1;whiteSpace=wrap;html=1;dashed=1;fontSize=10;fontColor=#004A52;strokeColor=#4DB2BD;fillColor=none;gradientColor=none;arcSize=8;perimeterSpacing=0;strokeWidth=2;" parent="1" vertex="1">
                    <mxGeometry x="4.5" y="1336" width="810" height="441" as="geometry"/>
                </mxCell>
                <mxCell id="285" value="&lt;font style=&quot;font-size: 19px&quot;&gt;Server&lt;/font&gt;" style="text;html=1;strokeColor=none;fillColor=none;align=center;verticalAlign=middle;whiteSpace=wrap;rounded=0;fontColor=#FFFFFF;" parent="1" vertex="1">
                    <mxGeometry x="349" y="1366" width="119" height="30" as="geometry"/>
                </mxCell>
                <mxCell id="286" style="edgeStyle=none;html=1;exitX=0.75;exitY=0;exitDx=0;exitDy=0;entryX=0.301;entryY=1.008;entryDx=0;entryDy=0;entryPerimeter=0;fontSize=19;fontColor=#FFFFFF;endArrow=blockThin;endFill=1;strokeWidth=2;" parent="1" source="287" target="291" edge="1">
                    <mxGeometry relative="1" as="geometry"/>
                </mxCell>
                <mxCell id="287" value="" style="rounded=1;whiteSpace=wrap;html=1;fontColor=#004A52;strokeColor=#FFFFFF;fillColor=#00636E;" parent="1" vertex="1">
                    <mxGeometry x="256.5" y="1506" width="120" height="107" as="geometry"/>
                </mxCell>
                <mxCell id="288" value="Service Server" style="text;html=1;strokeColor=none;fillColor=none;align=center;verticalAlign=middle;whiteSpace=wrap;rounded=0;fontColor=#FFFFFF;" parent="1" vertex="1">
                    <mxGeometry x="270.5" y="1510" width="93" height="30" as="geometry"/>
                </mxCell>
                <mxCell id="289" style="edgeStyle=none;html=1;exitX=0.105;exitY=0.994;exitDx=0;exitDy=0;entryX=0.25;entryY=0;entryDx=0;entryDy=0;fontSize=19;fontColor=#FFFFFF;endArrow=none;endFill=0;strokeWidth=2;exitPerimeter=0;" parent="1" source="291" target="287" edge="1">
                    <mxGeometry relative="1" as="geometry"/>
                </mxCell>
                <mxCell id="290" style="edgeStyle=none;html=1;exitX=0.701;exitY=1.008;exitDx=0;exitDy=0;entryX=0.25;entryY=0;entryDx=0;entryDy=0;fontSize=19;fontColor=#FFFFFF;endArrow=blockThin;endFill=1;strokeWidth=2;exitPerimeter=0;" parent="1" source="291" target="294" edge="1">
                    <mxGeometry relative="1" as="geometry"/>
                </mxCell>
                <mxCell id="291" value="" style="rounded=1;whiteSpace=wrap;html=1;fontSize=19;fontColor=#FFFFFF;strokeColor=#FFFFFF;fillColor=#00636E;" parent="1" vertex="1">
                    <mxGeometry x="255.5" y="1407" width="305" height="60" as="geometry"/>
                </mxCell>
                <mxCell id="292" value="Server Controller" style="text;html=1;strokeColor=none;fillColor=none;align=center;verticalAlign=middle;whiteSpace=wrap;rounded=0;fontColor=#FFFFFF;" parent="1" vertex="1">
                    <mxGeometry x="332.5" y="1407" width="150" height="30" as="geometry"/>
                </mxCell>
                <mxCell id="293" style="edgeStyle=none;html=1;exitX=0.75;exitY=0;exitDx=0;exitDy=0;entryX=0.896;entryY=0.988;entryDx=0;entryDy=0;entryPerimeter=0;fontSize=19;fontColor=#FFFFFF;endArrow=blockThin;endFill=1;strokeWidth=2;" parent="1" source="294" target="291" edge="1">
                    <mxGeometry relative="1" as="geometry"/>
                </mxCell>
                <mxCell id="294" value="" style="rounded=1;whiteSpace=wrap;html=1;fontColor=#004A52;strokeColor=#FFFFFF;fillColor=#00636E;" parent="1" vertex="1">
                    <mxGeometry x="438.5" y="1503.5" width="120" height="107" as="geometry"/>
                </mxCell>
                <mxCell id="295" value="Master node" style="text;html=1;strokeColor=none;fillColor=none;align=center;verticalAlign=middle;whiteSpace=wrap;rounded=0;fontColor=#FFFFFF;" parent="1" vertex="1">
                    <mxGeometry x="462.25" y="1510" width="72.5" height="30" as="geometry"/>
                </mxCell>
                <mxCell id="296" value="" style="rounded=1;whiteSpace=wrap;html=1;fontColor=#004A52;strokeColor=#FFFFFF;fillColor=#00636E;" parent="1" vertex="1">
                    <mxGeometry x="611.5" y="1347" width="198" height="249" as="geometry"/>
                </mxCell>
                <mxCell id="297" value="Slave node #0" style="text;html=1;strokeColor=none;fillColor=none;align=center;verticalAlign=middle;whiteSpace=wrap;rounded=0;fontColor=#FFFFFF;" parent="1" vertex="1">
                    <mxGeometry x="666.88" y="1349" width="87.25" height="30" as="geometry"/>
                </mxCell>
                <mxCell id="298" value="" style="rounded=1;whiteSpace=wrap;html=1;fontSize=19;fontColor=#FFFFFF;strokeColor=#FFFFFF;fillColor=#009999;" parent="1" vertex="1">
                    <mxGeometry x="621.5" y="1382" width="176" height="91" as="geometry"/>
                </mxCell>
                <mxCell id="299" value="&lt;font style=&quot;font-size: 10px&quot;&gt;ImageTaskModule&lt;/font&gt;" style="text;html=1;strokeColor=none;fillColor=none;align=center;verticalAlign=middle;whiteSpace=wrap;rounded=0;fontColor=#FFFFFF;" parent="1" vertex="1">
                    <mxGeometry x="671.25" y="1381" width="72.5" height="30" as="geometry"/>
                </mxCell>
                <mxCell id="300" value="" style="rounded=1;whiteSpace=wrap;html=1;fontSize=19;fontColor=#FFFFFF;strokeColor=#FFFFFF;fillColor=#00CCCC;" parent="1" vertex="1">
                    <mxGeometry x="622.5" y="1482" width="176" height="98" as="geometry"/>
                </mxCell>
                <mxCell id="301" value="&lt;font style=&quot;font-size: 10px&quot;&gt;Yolov5TaskModule&lt;/font&gt;" style="text;html=1;strokeColor=none;fillColor=none;align=center;verticalAlign=middle;whiteSpace=wrap;rounded=0;fontColor=#FFFFFF;" parent="1" vertex="1">
                    <mxGeometry x="671.25" y="1483" width="72.5" height="30" as="geometry"/>
                </mxCell>
                <mxCell id="302" value="" style="rounded=1;whiteSpace=wrap;html=1;fontColor=#004A52;strokeColor=#FFFFFF;fillColor=#00636E;" parent="1" vertex="1">
                    <mxGeometry x="608.5" y="1607" width="198" height="135" as="geometry"/>
                </mxCell>
                <mxCell id="303" value="Slave node #0" style="text;html=1;strokeColor=none;fillColor=none;align=center;verticalAlign=middle;whiteSpace=wrap;rounded=0;fontColor=#FFFFFF;" parent="1" vertex="1">
                    <mxGeometry x="663.88" y="1609" width="87.25" height="30" as="geometry"/>
                </mxCell>
                <mxCell id="304" value="" style="rounded=1;whiteSpace=wrap;html=1;fontSize=19;fontColor=#FFFFFF;strokeColor=#FFFFFF;fillColor=#009999;" parent="1" vertex="1">
                    <mxGeometry x="618.5" y="1642" width="176" height="91" as="geometry"/>
                </mxCell>
                <mxCell id="305" value="&lt;font style=&quot;font-size: 10px&quot;&gt;ImageTaskModule&lt;/font&gt;" style="text;html=1;strokeColor=none;fillColor=none;align=center;verticalAlign=middle;whiteSpace=wrap;rounded=0;fontColor=#FFFFFF;" parent="1" vertex="1">
                    <mxGeometry x="668.25" y="1641" width="72.5" height="30" as="geometry"/>
                </mxCell>
                <mxCell id="306" value="" style="rounded=1;whiteSpace=wrap;html=1;fontColor=#004A52;strokeColor=#FFFFFF;fillColor=#00636E;arcSize=11;" parent="1" vertex="1">
                    <mxGeometry x="242.5" y="1363" width="334" height="377" as="geometry"/>
                </mxCell>
                <mxCell id="307" value="&lt;font style=&quot;font-size: 19px&quot;&gt;Server&lt;/font&gt;" style="text;html=1;strokeColor=none;fillColor=none;align=center;verticalAlign=middle;whiteSpace=wrap;rounded=0;fontColor=#FFFFFF;" parent="1" vertex="1">
                    <mxGeometry x="350" y="1367" width="119" height="30" as="geometry"/>
                </mxCell>
                <mxCell id="308" value="" style="rounded=1;whiteSpace=wrap;html=1;fontSize=19;fontColor=#FFFFFF;strokeColor=#FFFFFF;fillColor=#00636E;" parent="1" vertex="1">
                    <mxGeometry x="256.5" y="1408" width="305" height="60" as="geometry"/>
                </mxCell>
                <mxCell id="309" value="Server Controller" style="text;html=1;strokeColor=none;fillColor=none;align=center;verticalAlign=middle;whiteSpace=wrap;rounded=0;fontColor=#FFFFFF;" parent="1" vertex="1">
                    <mxGeometry x="333.5" y="1408" width="150" height="30" as="geometry"/>
                </mxCell>
                <mxCell id="310" value="" style="rounded=1;whiteSpace=wrap;html=1;fontColor=#004A52;strokeColor=#FFFFFF;fillColor=#00636E;" parent="1" vertex="1">
                    <mxGeometry x="419.5" y="1504.5" width="140" height="221.5" as="geometry"/>
                </mxCell>
                <mxCell id="311" value="Master node" style="text;html=1;strokeColor=none;fillColor=none;align=center;verticalAlign=middle;whiteSpace=wrap;rounded=0;fontColor=#FFFFFF;" parent="1" vertex="1">
                    <mxGeometry x="453.75" y="1510" width="72.5" height="30" as="geometry"/>
                </mxCell>
                <mxCell id="312" value="" style="rounded=1;whiteSpace=wrap;html=1;fontColor=#004A52;strokeColor=#FFFFFF;fillColor=#00636E;" parent="1" vertex="1">
                    <mxGeometry x="612.5" y="1348" width="198" height="249" as="geometry"/>
                </mxCell>
                <mxCell id="313" value="Slave node #0" style="text;html=1;strokeColor=none;fillColor=none;align=center;verticalAlign=middle;whiteSpace=wrap;rounded=0;fontColor=#FFFFFF;" parent="1" vertex="1">
                    <mxGeometry x="667.88" y="1350" width="87.25" height="30" as="geometry"/>
                </mxCell>
                <mxCell id="314" value="" style="rounded=1;whiteSpace=wrap;html=1;fontSize=19;fontColor=#FFFFFF;strokeColor=#FFFFFF;fillColor=#009999;" parent="1" vertex="1">
                    <mxGeometry x="622.5" y="1383" width="176" height="91" as="geometry"/>
                </mxCell>
                <mxCell id="315" value="&lt;font style=&quot;font-size: 10px&quot;&gt;ImageTaskModule&lt;/font&gt;" style="text;html=1;strokeColor=none;fillColor=none;align=center;verticalAlign=middle;whiteSpace=wrap;rounded=0;fontColor=#FFFFFF;" parent="1" vertex="1">
                    <mxGeometry x="672.25" y="1382" width="72.5" height="30" as="geometry"/>
                </mxCell>
                <mxCell id="316" value="" style="rounded=1;whiteSpace=wrap;html=1;fontSize=19;fontColor=#FFFFFF;strokeColor=#FFFFFF;fillColor=#00CCCC;" parent="1" vertex="1">
                    <mxGeometry x="623.5" y="1483" width="176" height="98" as="geometry"/>
                </mxCell>
                <mxCell id="317" value="&lt;font style=&quot;font-size: 10px&quot;&gt;Yolov5TaskModule&lt;/font&gt;" style="text;html=1;strokeColor=none;fillColor=none;align=center;verticalAlign=middle;whiteSpace=wrap;rounded=0;fontColor=#FFFFFF;" parent="1" vertex="1">
                    <mxGeometry x="672.25" y="1484" width="72.5" height="30" as="geometry"/>
                </mxCell>
                <mxCell id="318" value="" style="rounded=1;whiteSpace=wrap;html=1;fontColor=#004A52;strokeColor=#FFFFFF;fillColor=#00636E;" parent="1" vertex="1">
                    <mxGeometry x="609.5" y="1608" width="198" height="135" as="geometry"/>
                </mxCell>
                <mxCell id="319" value="Slave node #1" style="text;html=1;strokeColor=none;fillColor=none;align=center;verticalAlign=middle;whiteSpace=wrap;rounded=0;fontColor=#FFFFFF;" parent="1" vertex="1">
                    <mxGeometry x="664.88" y="1610" width="87.25" height="30" as="geometry"/>
                </mxCell>
                <mxCell id="320" value="" style="rounded=1;whiteSpace=wrap;html=1;fontSize=19;fontColor=#FFFFFF;strokeColor=#FFFFFF;fillColor=#009999;" parent="1" vertex="1">
                    <mxGeometry x="619.5" y="1643" width="176" height="91" as="geometry"/>
                </mxCell>
                <mxCell id="321" value="&lt;font style=&quot;font-size: 10px&quot;&gt;ImageTaskModule&lt;/font&gt;" style="text;html=1;strokeColor=none;fillColor=none;align=center;verticalAlign=middle;whiteSpace=wrap;rounded=0;fontColor=#FFFFFF;" parent="1" vertex="1">
                    <mxGeometry x="669.25" y="1642" width="72.5" height="30" as="geometry"/>
                </mxCell>
                <mxCell id="322" value="&lt;font color=&quot;#004a52&quot; style=&quot;font-size: 11px&quot;&gt;&lt;b&gt;STEP 4: &lt;/b&gt;Una vez el esclavo termina una tarea, esta es movida la bandeja de salida, desde donde es enviada de vuelta al Master node.&lt;/font&gt;" style="text;html=1;strokeColor=none;fillColor=#4DB2BD;align=center;verticalAlign=middle;whiteSpace=wrap;rounded=0;fontSize=10;fontColor=#FFFFFF;gradientColor=none;" parent="1" vertex="1">
                    <mxGeometry x="21.5" y="1376" width="200" height="109" as="geometry"/>
                </mxCell>
                <mxCell id="323" value="" style="rounded=1;whiteSpace=wrap;html=1;fontColor=#004A52;strokeColor=#FFFFFF;fillColor=#00636E;" parent="1" vertex="1">
                    <mxGeometry x="259.5" y="1504.5" width="149" height="220.5" as="geometry"/>
                </mxCell>
                <mxCell id="324" value="Service Server" style="text;html=1;strokeColor=none;fillColor=none;align=center;verticalAlign=middle;whiteSpace=wrap;rounded=0;fontColor=#FFFFFF;" parent="1" vertex="1">
                    <mxGeometry x="292.5" y="1508.5" width="93" height="30" as="geometry"/>
                </mxCell>
                <mxCell id="325" value="" style="rounded=1;whiteSpace=wrap;html=1;fontColor=#004A52;strokeColor=#FFFFFF;fillColor=#00636E;" parent="1" vertex="1">
                    <mxGeometry x="268.5" y="1540" width="129" height="110" as="geometry"/>
                </mxCell>
                <mxCell id="326" value="Request inbox" style="text;html=1;strokeColor=none;fillColor=none;align=center;verticalAlign=middle;whiteSpace=wrap;rounded=0;fontColor=#FFFFFF;" parent="1" vertex="1">
                    <mxGeometry x="286.5" y="1542" width="93" height="30" as="geometry"/>
                </mxCell>
                <mxCell id="327" value="" style="rounded=1;whiteSpace=wrap;html=1;fontColor=#004A52;strokeColor=#FFFFFF;fillColor=#00636E;" parent="1" vertex="1">
                    <mxGeometry x="270.5" y="1656" width="129" height="53" as="geometry"/>
                </mxCell>
                <mxCell id="328" style="edgeStyle=none;html=1;exitX=1;exitY=0.5;exitDx=0;exitDy=0;entryX=0;entryY=0.5;entryDx=0;entryDy=0;dashed=1;fontSize=10;fontColor=#004A52;endArrow=none;endFill=0;strokeWidth=2;strokeColor=#FFFFFF;" parent="1" source="329" target="323" edge="1">
                    <mxGeometry relative="1" as="geometry"/>
                </mxCell>
                <mxCell id="329" value="" style="rounded=1;whiteSpace=wrap;html=1;fontColor=#004A52;strokeColor=#FFFFFF;fillColor=#00636E;" parent="1" vertex="1">
                    <mxGeometry x="32.5" y="1561.75" width="120" height="107" as="geometry"/>
                </mxCell>
                <mxCell id="330" value="Client #0" style="text;html=1;strokeColor=none;fillColor=none;align=center;verticalAlign=middle;whiteSpace=wrap;rounded=0;fontColor=#FFFFFF;" parent="1" vertex="1">
                    <mxGeometry x="61.5" y="1562.75" width="60" height="30" as="geometry"/>
                </mxCell>
                <mxCell id="332" value="" style="rounded=1;whiteSpace=wrap;html=1;fontColor=#004A52;strokeColor=#FFFFFF;fillColor=#00636E;arcSize=12;" parent="1" vertex="1">
                    <mxGeometry x="425" y="1591" width="129" height="120" as="geometry"/>
                </mxCell>
                <mxCell id="333" value="Task outbox" style="text;html=1;strokeColor=none;fillColor=none;align=center;verticalAlign=middle;whiteSpace=wrap;rounded=0;fontColor=#FFFFFF;" parent="1" vertex="1">
                    <mxGeometry x="437.25" y="1586.75" width="93" height="30" as="geometry"/>
                </mxCell>
                <mxCell id="336" value="" style="rounded=1;whiteSpace=wrap;html=1;fontColor=#004A52;strokeColor=#FFFFFF;fillColor=#00636E;arcSize=30;" parent="1" vertex="1">
                    <mxGeometry x="425" y="1539" width="129" height="47" as="geometry"/>
                </mxCell>
                <mxCell id="337" value="Task inbox" style="text;html=1;strokeColor=none;fillColor=none;align=center;verticalAlign=middle;whiteSpace=wrap;rounded=0;fontColor=#FFFFFF;" parent="1" vertex="1">
                    <mxGeometry x="443" y="1536.5" width="93" height="30" as="geometry"/>
                </mxCell>
                <mxCell id="338" value="Job#B0" style="rounded=1;whiteSpace=wrap;html=1;fontColor=#ffffff;fillColor=#00CCCC;strokeColor=#FFFFFF;arcSize=22;strokeWidth=1;" parent="1" vertex="1">
                    <mxGeometry x="494" y="1649.25" width="48.75" height="25" as="geometry"/>
                </mxCell>
                <mxCell id="339" value="Job#A0" style="rounded=1;whiteSpace=wrap;html=1;fontColor=#ffffff;fillColor=#009999;strokeColor=#006EAF;arcSize=22;strokeWidth=1;" parent="1" vertex="1">
                    <mxGeometry x="435.75" y="1619.25" width="50.5" height="26" as="geometry"/>
                </mxCell>
                <mxCell id="340" value="Job#A1" style="rounded=1;whiteSpace=wrap;html=1;fontColor=#ffffff;fillColor=#009999;strokeColor=#006EAF;arcSize=22;strokeWidth=1;" parent="1" vertex="1">
                    <mxGeometry x="492.25" y="1619" width="53" height="26" as="geometry"/>
                </mxCell>
                <mxCell id="341" value="Job#A2" style="rounded=1;whiteSpace=wrap;html=1;fontColor=#ffffff;fillColor=#009999;strokeColor=#006EAF;arcSize=22;strokeWidth=1;" parent="1" vertex="1">
                    <mxGeometry x="435.75" y="1648.25" width="49" height="26" as="geometry"/>
                </mxCell>
                <mxCell id="342" value="" style="rounded=1;whiteSpace=wrap;html=1;shadow=0;glass=0;sketch=0;fontSize=10;fontColor=#004A52;strokeColor=#FFFFFF;strokeWidth=1;fillColor=none;gradientColor=none;gradientDirection=east;" parent="1" vertex="1">
                    <mxGeometry x="630.13" y="1411" width="77.37" height="55" as="geometry"/>
                </mxCell>
                <mxCell id="343" value="Job#B1" style="rounded=1;whiteSpace=wrap;html=1;fontColor=#ffffff;fillColor=#00CCCC;strokeColor=#FFFFFF;arcSize=22;strokeWidth=1;" parent="1" vertex="1">
                    <mxGeometry x="436.25" y="1678.25" width="48.75" height="25" as="geometry"/>
                </mxCell>
                <mxCell id="347" value="" style="rounded=1;whiteSpace=wrap;html=1;shadow=0;glass=0;sketch=0;fontSize=10;fontColor=#004A52;strokeColor=#FFFFFF;strokeWidth=1;fillColor=none;gradientColor=none;gradientDirection=east;" parent="1" vertex="1">
                    <mxGeometry x="715.5" y="1411" width="77.37" height="55" as="geometry"/>
                </mxCell>
                <mxCell id="344" value="Job#A1" style="rounded=1;whiteSpace=wrap;html=1;fontColor=#ffffff;fillColor=#009999;strokeColor=#006EAF;arcSize=22;strokeWidth=2;dashed=1;" parent="1" vertex="1">
                    <mxGeometry x="724.5" y="1434" width="53" height="26" as="geometry"/>
                </mxCell>
                <mxCell id="346" value="&lt;span style=&quot;font-size: 10px&quot;&gt;Task inbox&lt;/span&gt;" style="text;html=1;strokeColor=none;fillColor=none;align=center;verticalAlign=middle;whiteSpace=wrap;rounded=0;fontColor=#FFFFFF;" parent="1" vertex="1">
                    <mxGeometry x="632.57" y="1406" width="72.5" height="30" as="geometry"/>
                </mxCell>
                <mxCell id="361" style="edgeStyle=none;html=1;exitX=1;exitY=0.5;exitDx=0;exitDy=0;entryX=1;entryY=0.5;entryDx=0;entryDy=0;fontSize=7;fontColor=#004A52;endArrow=classic;endFill=1;strokeWidth=2;strokeColor=#FFFFFF;" parent="1" source="347" target="332" edge="1">
                    <mxGeometry relative="1" as="geometry">
                        <Array as="points">
                            <mxPoint x="805.5" y="1437"/>
                            <mxPoint x="804.5" y="1477"/>
                            <mxPoint x="589.5" y="1479"/>
                            <mxPoint x="589.5" y="1652"/>
                        </Array>
                    </mxGeometry>
                </mxCell>
                <mxCell id="348" value="&lt;span style=&quot;font-size: 10px&quot;&gt;Task outbox&lt;/span&gt;" style="text;html=1;strokeColor=none;fillColor=none;align=center;verticalAlign=middle;whiteSpace=wrap;rounded=0;fontColor=#FFFFFF;" parent="1" vertex="1">
                    <mxGeometry x="717.94" y="1406" width="72.5" height="30" as="geometry"/>
                </mxCell>
                <mxCell id="349" value="" style="rounded=1;whiteSpace=wrap;html=1;shadow=0;glass=0;sketch=0;fontSize=10;fontColor=#004A52;strokeColor=#FFFFFF;strokeWidth=1;fillColor=none;gradientColor=none;gradientDirection=east;" parent="1" vertex="1">
                    <mxGeometry x="631.76" y="1517" width="44.74" height="55" as="geometry"/>
                </mxCell>
                <mxCell id="350" value="&lt;span style=&quot;font-size: 10px&quot;&gt;Task inbox&lt;/span&gt;" style="text;html=1;strokeColor=none;fillColor=none;align=center;verticalAlign=middle;whiteSpace=wrap;rounded=0;fontColor=#FFFFFF;" parent="1" vertex="1">
                    <mxGeometry x="616.5" y="1512" width="72.5" height="30" as="geometry"/>
                </mxCell>
                <mxCell id="362" style="edgeStyle=none;html=1;exitX=1;exitY=0.5;exitDx=0;exitDy=0;entryX=0.988;entryY=0.65;entryDx=0;entryDy=0;fontSize=7;fontColor=#004A52;endArrow=classic;endFill=1;strokeWidth=2;entryPerimeter=0;strokeColor=#FFFFFF;" parent="1" source="351" target="332" edge="1">
                    <mxGeometry relative="1" as="geometry">
                        <Array as="points">
                            <mxPoint x="804.5" y="1544"/>
                            <mxPoint x="804.5" y="1601"/>
                            <mxPoint x="599.5" y="1602"/>
                            <mxPoint x="596.5" y="1669"/>
                        </Array>
                    </mxGeometry>
                </mxCell>
                <mxCell id="351" value="" style="rounded=1;whiteSpace=wrap;html=1;shadow=0;glass=0;sketch=0;fontSize=10;fontColor=#004A52;strokeColor=#FFFFFF;strokeWidth=1;fillColor=none;gradientColor=none;gradientDirection=east;" parent="1" vertex="1">
                    <mxGeometry x="679.5" y="1518" width="113.37" height="55" as="geometry"/>
                </mxCell>
                <mxCell id="352" value="Job#B0" style="rounded=1;whiteSpace=wrap;html=1;fontColor=#ffffff;fillColor=#00CCCC;strokeColor=#FFFFFF;arcSize=22;strokeWidth=2;dashed=1;" parent="1" vertex="1">
                    <mxGeometry x="684.5" y="1536.5" width="48.75" height="25" as="geometry"/>
                </mxCell>
                <mxCell id="353" value="Job#B1" style="rounded=1;whiteSpace=wrap;html=1;fontColor=#ffffff;fillColor=#00CCCC;strokeColor=#FFFFFF;arcSize=22;strokeWidth=2;dashed=1;" parent="1" vertex="1">
                    <mxGeometry x="739.01" y="1537.75" width="48.75" height="25" as="geometry"/>
                </mxCell>
                <mxCell id="354" value="&lt;span style=&quot;font-size: 10px&quot;&gt;Task outbox&lt;/span&gt;" style="text;html=1;strokeColor=none;fillColor=none;align=center;verticalAlign=middle;whiteSpace=wrap;rounded=0;fontColor=#FFFFFF;rotation=0;" parent="1" vertex="1">
                    <mxGeometry x="707.5" y="1517" width="55.75" height="17" as="geometry"/>
                </mxCell>
                <mxCell id="355" value="" style="rounded=1;whiteSpace=wrap;html=1;shadow=0;glass=0;sketch=0;fontSize=10;fontColor=#004A52;strokeColor=#FFFFFF;strokeWidth=1;fillColor=none;gradientColor=none;gradientDirection=east;" parent="1" vertex="1">
                    <mxGeometry x="625.13" y="1668" width="47.37" height="55" as="geometry"/>
                </mxCell>
                <mxCell id="363" style="edgeStyle=none;html=1;exitX=1;exitY=0.5;exitDx=0;exitDy=0;entryX=1;entryY=0.75;entryDx=0;entryDy=0;fontSize=7;fontColor=#004A52;endArrow=classic;endFill=1;strokeWidth=2;strokeColor=#FFFFFF;" parent="1" source="357" target="332" edge="1">
                    <mxGeometry relative="1" as="geometry">
                        <Array as="points">
                            <mxPoint x="802.5" y="1695"/>
                            <mxPoint x="802.5" y="1752"/>
                            <mxPoint x="595.5" y="1750"/>
                            <mxPoint x="596.5" y="1680"/>
                        </Array>
                    </mxGeometry>
                </mxCell>
                <mxCell id="357" value="" style="rounded=1;whiteSpace=wrap;html=1;shadow=0;glass=0;sketch=0;fontSize=10;fontColor=#004A52;strokeColor=#FFFFFF;strokeWidth=1;fillColor=none;gradientColor=none;gradientDirection=east;" parent="1" vertex="1">
                    <mxGeometry x="675.5" y="1668" width="112.37" height="55" as="geometry"/>
                </mxCell>
                <mxCell id="356" value="Job#A0" style="rounded=1;whiteSpace=wrap;html=1;fontColor=#ffffff;fillColor=#009999;strokeColor=#006EAF;arcSize=22;strokeWidth=2;dashed=1;" parent="1" vertex="1">
                    <mxGeometry x="678.5" y="1689" width="50.5" height="26" as="geometry"/>
                </mxCell>
                <mxCell id="358" value="&lt;span style=&quot;font-size: 10px&quot;&gt;Task outbox&lt;/span&gt;" style="text;html=1;strokeColor=none;fillColor=none;align=center;verticalAlign=middle;whiteSpace=wrap;rounded=0;fontColor=#FFFFFF;" parent="1" vertex="1">
                    <mxGeometry x="694.75" y="1663" width="72.5" height="30" as="geometry"/>
                </mxCell>
                <mxCell id="359" value="&lt;span style=&quot;font-size: 10px&quot;&gt;Task inbox&lt;/span&gt;" style="text;html=1;strokeColor=none;fillColor=none;align=center;verticalAlign=middle;whiteSpace=wrap;rounded=0;fontColor=#FFFFFF;" parent="1" vertex="1">
                    <mxGeometry x="610.5" y="1663" width="72.5" height="30" as="geometry"/>
                </mxCell>
                <mxCell id="360" value="Job#A2" style="rounded=1;whiteSpace=wrap;html=1;fontColor=#ffffff;fillColor=#009999;strokeColor=#006EAF;arcSize=22;strokeWidth=2;dashed=1;" parent="1" vertex="1">
                    <mxGeometry x="735" y="1690" width="49" height="26" as="geometry"/>
                </mxCell>
                <mxCell id="364" value="Response outbox" style="text;html=1;strokeColor=none;fillColor=none;align=center;verticalAlign=middle;whiteSpace=wrap;rounded=0;fontColor=#FFFFFF;" parent="1" vertex="1">
                    <mxGeometry x="283" y="763" width="104" height="30" as="geometry"/>
                </mxCell>
                <mxCell id="365" value="Response outbox" style="text;html=1;strokeColor=none;fillColor=none;align=center;verticalAlign=middle;whiteSpace=wrap;rounded=0;fontColor=#FFFFFF;" parent="1" vertex="1">
                    <mxGeometry x="282" y="1198" width="104" height="30" as="geometry"/>
                </mxCell>
                <mxCell id="366" value="Response outbox" style="text;html=1;strokeColor=none;fillColor=none;align=center;verticalAlign=middle;whiteSpace=wrap;rounded=0;fontColor=#FFFFFF;" parent="1" vertex="1">
                    <mxGeometry x="281" y="1658" width="104" height="30" as="geometry"/>
                </mxCell>
                <mxCell id="367" value="" style="rounded=1;whiteSpace=wrap;html=1;dashed=1;fontSize=10;fontColor=#004A52;strokeColor=#4DB2BD;fillColor=none;gradientColor=none;arcSize=8;perimeterSpacing=0;strokeWidth=2;container=1;" parent="1" vertex="1">
                    <mxGeometry x="3.5" y="1800" width="810" height="441" as="geometry"/>
                </mxCell>
                <mxCell id="368" value="&lt;font style=&quot;font-size: 19px&quot;&gt;Server&lt;/font&gt;" style="text;html=1;strokeColor=none;fillColor=none;align=center;verticalAlign=middle;whiteSpace=wrap;rounded=0;fontColor=#FFFFFF;" parent="1" vertex="1">
                    <mxGeometry x="348" y="1830" width="119" height="30" as="geometry"/>
                </mxCell>
                <mxCell id="369" style="edgeStyle=none;html=1;exitX=0.75;exitY=0;exitDx=0;exitDy=0;entryX=0.301;entryY=1.008;entryDx=0;entryDy=0;entryPerimeter=0;fontSize=19;fontColor=#FFFFFF;endArrow=blockThin;endFill=1;strokeWidth=2;" parent="1" source="370" target="374" edge="1">
                    <mxGeometry relative="1" as="geometry"/>
                </mxCell>
                <mxCell id="370" value="" style="rounded=1;whiteSpace=wrap;html=1;fontColor=#004A52;strokeColor=#FFFFFF;fillColor=#00636E;" parent="1" vertex="1">
                    <mxGeometry x="255.5" y="1970" width="120" height="107" as="geometry"/>
                </mxCell>
                <mxCell id="371" value="Service Server" style="text;html=1;strokeColor=none;fillColor=none;align=center;verticalAlign=middle;whiteSpace=wrap;rounded=0;fontColor=#FFFFFF;" parent="1" vertex="1">
                    <mxGeometry x="269.5" y="1974" width="93" height="30" as="geometry"/>
                </mxCell>
                <mxCell id="372" style="edgeStyle=none;html=1;exitX=0.105;exitY=0.994;exitDx=0;exitDy=0;entryX=0.25;entryY=0;entryDx=0;entryDy=0;fontSize=19;fontColor=#FFFFFF;endArrow=none;endFill=0;strokeWidth=2;exitPerimeter=0;" parent="1" source="374" target="370" edge="1">
                    <mxGeometry relative="1" as="geometry"/>
                </mxCell>
                <mxCell id="373" style="edgeStyle=none;html=1;exitX=0.701;exitY=1.008;exitDx=0;exitDy=0;entryX=0.25;entryY=0;entryDx=0;entryDy=0;fontSize=19;fontColor=#FFFFFF;endArrow=blockThin;endFill=1;strokeWidth=2;exitPerimeter=0;" parent="1" source="374" target="377" edge="1">
                    <mxGeometry relative="1" as="geometry"/>
                </mxCell>
                <mxCell id="374" value="" style="rounded=1;whiteSpace=wrap;html=1;fontSize=19;fontColor=#FFFFFF;strokeColor=#FFFFFF;fillColor=#00636E;" parent="1" vertex="1">
                    <mxGeometry x="254.5" y="1871" width="305" height="60" as="geometry"/>
                </mxCell>
                <mxCell id="375" value="Server Controller" style="text;html=1;strokeColor=none;fillColor=none;align=center;verticalAlign=middle;whiteSpace=wrap;rounded=0;fontColor=#FFFFFF;" parent="1" vertex="1">
                    <mxGeometry x="331.5" y="1871" width="150" height="30" as="geometry"/>
                </mxCell>
                <mxCell id="376" style="edgeStyle=none;html=1;exitX=0.75;exitY=0;exitDx=0;exitDy=0;entryX=0.896;entryY=0.988;entryDx=0;entryDy=0;entryPerimeter=0;fontSize=19;fontColor=#FFFFFF;endArrow=blockThin;endFill=1;strokeWidth=2;" parent="1" source="377" target="374" edge="1">
                    <mxGeometry relative="1" as="geometry"/>
                </mxCell>
                <mxCell id="377" value="" style="rounded=1;whiteSpace=wrap;html=1;fontColor=#004A52;strokeColor=#FFFFFF;fillColor=#00636E;" parent="1" vertex="1">
                    <mxGeometry x="437.5" y="1967.5" width="120" height="107" as="geometry"/>
                </mxCell>
                <mxCell id="378" value="Master node" style="text;html=1;strokeColor=none;fillColor=none;align=center;verticalAlign=middle;whiteSpace=wrap;rounded=0;fontColor=#FFFFFF;" parent="1" vertex="1">
                    <mxGeometry x="461.25" y="1974" width="72.5" height="30" as="geometry"/>
                </mxCell>
                <mxCell id="379" value="" style="rounded=1;whiteSpace=wrap;html=1;fontColor=#004A52;strokeColor=#FFFFFF;fillColor=#00636E;" parent="1" vertex="1">
                    <mxGeometry x="610.5" y="1811" width="198" height="249" as="geometry"/>
                </mxCell>
                <mxCell id="380" value="Slave node #0" style="text;html=1;strokeColor=none;fillColor=none;align=center;verticalAlign=middle;whiteSpace=wrap;rounded=0;fontColor=#FFFFFF;" parent="1" vertex="1">
                    <mxGeometry x="665.88" y="1813" width="87.25" height="30" as="geometry"/>
                </mxCell>
                <mxCell id="381" value="" style="rounded=1;whiteSpace=wrap;html=1;fontSize=19;fontColor=#FFFFFF;strokeColor=#FFFFFF;fillColor=#009999;" parent="1" vertex="1">
                    <mxGeometry x="620.5" y="1846" width="176" height="91" as="geometry"/>
                </mxCell>
                <mxCell id="382" value="&lt;font style=&quot;font-size: 10px&quot;&gt;ImageTaskModule&lt;/font&gt;" style="text;html=1;strokeColor=none;fillColor=none;align=center;verticalAlign=middle;whiteSpace=wrap;rounded=0;fontColor=#FFFFFF;" parent="1" vertex="1">
                    <mxGeometry x="670.25" y="1845" width="72.5" height="30" as="geometry"/>
                </mxCell>
                <mxCell id="383" value="" style="rounded=1;whiteSpace=wrap;html=1;fontSize=19;fontColor=#FFFFFF;strokeColor=#FFFFFF;fillColor=#00CCCC;" parent="1" vertex="1">
                    <mxGeometry x="621.5" y="1946" width="176" height="98" as="geometry"/>
                </mxCell>
                <mxCell id="384" value="&lt;font style=&quot;font-size: 10px&quot;&gt;Yolov5TaskModule&lt;/font&gt;" style="text;html=1;strokeColor=none;fillColor=none;align=center;verticalAlign=middle;whiteSpace=wrap;rounded=0;fontColor=#FFFFFF;" parent="1" vertex="1">
                    <mxGeometry x="670.25" y="1947" width="72.5" height="30" as="geometry"/>
                </mxCell>
                <mxCell id="385" value="" style="rounded=1;whiteSpace=wrap;html=1;fontColor=#004A52;strokeColor=#FFFFFF;fillColor=#00636E;" parent="1" vertex="1">
                    <mxGeometry x="607.5" y="2071" width="198" height="135" as="geometry"/>
                </mxCell>
                <mxCell id="386" value="Slave node #0" style="text;html=1;strokeColor=none;fillColor=none;align=center;verticalAlign=middle;whiteSpace=wrap;rounded=0;fontColor=#FFFFFF;" parent="1" vertex="1">
                    <mxGeometry x="662.88" y="2073" width="87.25" height="30" as="geometry"/>
                </mxCell>
                <mxCell id="387" value="" style="rounded=1;whiteSpace=wrap;html=1;fontSize=19;fontColor=#FFFFFF;strokeColor=#FFFFFF;fillColor=#009999;" parent="1" vertex="1">
                    <mxGeometry x="617.5" y="2106" width="176" height="91" as="geometry"/>
                </mxCell>
                <mxCell id="388" value="&lt;font style=&quot;font-size: 10px&quot;&gt;ImageTaskModule&lt;/font&gt;" style="text;html=1;strokeColor=none;fillColor=none;align=center;verticalAlign=middle;whiteSpace=wrap;rounded=0;fontColor=#FFFFFF;" parent="1" vertex="1">
                    <mxGeometry x="667.25" y="2105" width="72.5" height="30" as="geometry"/>
                </mxCell>
                <mxCell id="389" value="" style="rounded=1;whiteSpace=wrap;html=1;fontColor=#004A52;strokeColor=#FFFFFF;fillColor=#00636E;arcSize=11;" parent="1" vertex="1">
                    <mxGeometry x="241.5" y="1827" width="334" height="377" as="geometry"/>
                </mxCell>
                <mxCell id="390" value="&lt;font style=&quot;font-size: 19px&quot;&gt;Server&lt;/font&gt;" style="text;html=1;strokeColor=none;fillColor=none;align=center;verticalAlign=middle;whiteSpace=wrap;rounded=0;fontColor=#FFFFFF;" parent="1" vertex="1">
                    <mxGeometry x="349" y="1831" width="119" height="30" as="geometry"/>
                </mxCell>
                <mxCell id="391" value="" style="rounded=1;whiteSpace=wrap;html=1;fontSize=19;fontColor=#FFFFFF;strokeColor=#FFFFFF;fillColor=#00636E;" parent="1" vertex="1">
                    <mxGeometry x="255.5" y="1872" width="305" height="60" as="geometry"/>
                </mxCell>
                <mxCell id="392" value="Server Controller" style="text;html=1;strokeColor=none;fillColor=none;align=center;verticalAlign=middle;whiteSpace=wrap;rounded=0;fontColor=#FFFFFF;" parent="1" vertex="1">
                    <mxGeometry x="332.5" y="1872" width="150" height="30" as="geometry"/>
                </mxCell>
                <mxCell id="393" value="" style="rounded=1;whiteSpace=wrap;html=1;fontColor=#004A52;strokeColor=#FFFFFF;fillColor=#00636E;" parent="1" vertex="1">
                    <mxGeometry x="418.5" y="1968.5" width="140" height="221.5" as="geometry"/>
                </mxCell>
                <mxCell id="394" value="Master node" style="text;html=1;strokeColor=none;fillColor=none;align=center;verticalAlign=middle;whiteSpace=wrap;rounded=0;fontColor=#FFFFFF;" parent="1" vertex="1">
                    <mxGeometry x="452.75" y="1974" width="72.5" height="30" as="geometry"/>
                </mxCell>
                <mxCell id="395" value="" style="rounded=1;whiteSpace=wrap;html=1;fontColor=#004A52;strokeColor=#FFFFFF;fillColor=#00636E;" parent="1" vertex="1">
                    <mxGeometry x="611.5" y="1812" width="198" height="249" as="geometry"/>
                </mxCell>
                <mxCell id="396" value="Slave node #0" style="text;html=1;strokeColor=none;fillColor=none;align=center;verticalAlign=middle;whiteSpace=wrap;rounded=0;fontColor=#FFFFFF;" parent="1" vertex="1">
                    <mxGeometry x="666.88" y="1814" width="87.25" height="30" as="geometry"/>
                </mxCell>
                <mxCell id="397" value="" style="rounded=1;whiteSpace=wrap;html=1;fontSize=19;fontColor=#FFFFFF;strokeColor=#FFFFFF;fillColor=#009999;" parent="1" vertex="1">
                    <mxGeometry x="621.5" y="1847" width="176" height="91" as="geometry"/>
                </mxCell>
                <mxCell id="398" value="&lt;font style=&quot;font-size: 10px&quot;&gt;ImageTaskModule&lt;/font&gt;" style="text;html=1;strokeColor=none;fillColor=none;align=center;verticalAlign=middle;whiteSpace=wrap;rounded=0;fontColor=#FFFFFF;" parent="1" vertex="1">
                    <mxGeometry x="671.25" y="1846" width="72.5" height="30" as="geometry"/>
                </mxCell>
                <mxCell id="399" value="" style="rounded=1;whiteSpace=wrap;html=1;fontSize=19;fontColor=#FFFFFF;strokeColor=#FFFFFF;fillColor=#00CCCC;" parent="1" vertex="1">
                    <mxGeometry x="622.5" y="1947" width="176" height="98" as="geometry"/>
                </mxCell>
                <mxCell id="400" value="&lt;font style=&quot;font-size: 10px&quot;&gt;Yolov5TaskModule&lt;/font&gt;" style="text;html=1;strokeColor=none;fillColor=none;align=center;verticalAlign=middle;whiteSpace=wrap;rounded=0;fontColor=#FFFFFF;" parent="1" vertex="1">
                    <mxGeometry x="671.25" y="1948" width="72.5" height="30" as="geometry"/>
                </mxCell>
                <mxCell id="401" value="" style="rounded=1;whiteSpace=wrap;html=1;fontColor=#004A52;strokeColor=#FFFFFF;fillColor=#00636E;" parent="1" vertex="1">
                    <mxGeometry x="608.5" y="2072" width="198" height="135" as="geometry"/>
                </mxCell>
                <mxCell id="402" value="Slave node #1" style="text;html=1;strokeColor=none;fillColor=none;align=center;verticalAlign=middle;whiteSpace=wrap;rounded=0;fontColor=#FFFFFF;" parent="1" vertex="1">
                    <mxGeometry x="663.88" y="2074" width="87.25" height="30" as="geometry"/>
                </mxCell>
                <mxCell id="403" value="" style="rounded=1;whiteSpace=wrap;html=1;fontSize=19;fontColor=#FFFFFF;strokeColor=#FFFFFF;fillColor=#009999;" parent="1" vertex="1">
                    <mxGeometry x="618.5" y="2107" width="176" height="91" as="geometry"/>
                </mxCell>
                <mxCell id="404" value="&lt;font style=&quot;font-size: 10px&quot;&gt;ImageTaskModule&lt;/font&gt;" style="text;html=1;strokeColor=none;fillColor=none;align=center;verticalAlign=middle;whiteSpace=wrap;rounded=0;fontColor=#FFFFFF;" parent="1" vertex="1">
                    <mxGeometry x="668.25" y="2106" width="72.5" height="30" as="geometry"/>
                </mxCell>
                <mxCell id="405" value="&lt;font color=&quot;#004a52&quot; style=&quot;font-size: 12px&quot;&gt;&lt;b&gt;STEP 5: &lt;/b&gt;Una vez se han recibido todas los trabajos finalizados, estos son reensamblados y finalmente enviados a la outbox del Service Server.&lt;/font&gt;" style="text;html=1;strokeColor=none;fillColor=#4DB2BD;align=center;verticalAlign=middle;whiteSpace=wrap;rounded=0;fontSize=10;fontColor=#FFFFFF;gradientColor=none;" parent="1" vertex="1">
                    <mxGeometry x="20.5" y="1840" width="200" height="109" as="geometry"/>
                </mxCell>
                <mxCell id="406" value="" style="rounded=1;whiteSpace=wrap;html=1;fontColor=#004A52;strokeColor=#FFFFFF;fillColor=#00636E;" parent="1" vertex="1">
                    <mxGeometry x="258.5" y="1968.5" width="149" height="220.5" as="geometry"/>
                </mxCell>
                <mxCell id="407" value="Service Server" style="text;html=1;strokeColor=none;fillColor=none;align=center;verticalAlign=middle;whiteSpace=wrap;rounded=0;fontColor=#FFFFFF;" parent="1" vertex="1">
                    <mxGeometry x="291.5" y="1972.5" width="93" height="30" as="geometry"/>
                </mxCell>
                <mxCell id="408" value="" style="rounded=1;whiteSpace=wrap;html=1;fontColor=#004A52;strokeColor=#FFFFFF;fillColor=#00636E;arcSize=26;" parent="1" vertex="1">
                    <mxGeometry x="265.5" y="2004" width="131" height="45" as="geometry"/>
                </mxCell>
                <mxCell id="409" value="Request inbox" style="text;html=1;strokeColor=none;fillColor=none;align=center;verticalAlign=middle;whiteSpace=wrap;rounded=0;fontColor=#FFFFFF;" parent="1" vertex="1">
                    <mxGeometry x="285.5" y="2006" width="93" height="30" as="geometry"/>
                </mxCell>
                <mxCell id="410" value="" style="rounded=1;whiteSpace=wrap;html=1;fontColor=#004A52;strokeColor=#FFFFFF;fillColor=#00636E;arcSize=10;" parent="1" vertex="1">
                    <mxGeometry x="266.5" y="2056.75" width="129" height="122" as="geometry"/>
                </mxCell>
                <mxCell id="411" style="edgeStyle=none;html=1;exitX=1;exitY=0.5;exitDx=0;exitDy=0;entryX=0;entryY=0.5;entryDx=0;entryDy=0;dashed=1;fontSize=10;fontColor=#004A52;endArrow=none;endFill=0;strokeWidth=2;strokeColor=#FFFFFF;" parent="1" source="412" target="406" edge="1">
                    <mxGeometry relative="1" as="geometry"/>
                </mxCell>
                <mxCell id="412" value="" style="rounded=1;whiteSpace=wrap;html=1;fontColor=#004A52;strokeColor=#FFFFFF;fillColor=#00636E;" parent="1" vertex="1">
                    <mxGeometry x="31.5" y="2025.75" width="120" height="107" as="geometry"/>
                </mxCell>
                <mxCell id="413" value="Client #0" style="text;html=1;strokeColor=none;fillColor=none;align=center;verticalAlign=middle;whiteSpace=wrap;rounded=0;fontColor=#FFFFFF;" parent="1" vertex="1">
                    <mxGeometry x="60.5" y="2026.75" width="60" height="30" as="geometry"/>
                </mxCell>
                <mxCell id="414" value="" style="rounded=1;whiteSpace=wrap;html=1;fontColor=#004A52;strokeColor=#FFFFFF;fillColor=#00636E;arcSize=12;" parent="1" vertex="1">
                    <mxGeometry x="424" y="2055" width="129" height="120" as="geometry"/>
                </mxCell>
                <mxCell id="415" value="Task outbox" style="text;html=1;strokeColor=none;fillColor=none;align=center;verticalAlign=middle;whiteSpace=wrap;rounded=0;fontColor=#FFFFFF;" parent="1" vertex="1">
                    <mxGeometry x="436.25" y="2050.75" width="93" height="30" as="geometry"/>
                </mxCell>
                <mxCell id="416" value="" style="rounded=1;whiteSpace=wrap;html=1;fontColor=#004A52;strokeColor=#FFFFFF;fillColor=#00636E;arcSize=30;" parent="1" vertex="1">
                    <mxGeometry x="424" y="2003" width="129" height="47" as="geometry"/>
                </mxCell>
                <mxCell id="417" value="Task inbox" style="text;html=1;strokeColor=none;fillColor=none;align=center;verticalAlign=middle;whiteSpace=wrap;rounded=0;fontColor=#FFFFFF;" parent="1" vertex="1">
                    <mxGeometry x="442" y="2000.5" width="93" height="30" as="geometry"/>
                </mxCell>
                <mxCell id="418" value="Job#B0" style="rounded=1;whiteSpace=wrap;html=1;fontColor=#ffffff;fillColor=#00CCCC;strokeColor=#FFFFFF;arcSize=22;strokeWidth=2;dashed=1;" parent="1" vertex="1">
                    <mxGeometry x="493" y="2113.25" width="48.75" height="25" as="geometry"/>
                </mxCell>
                <mxCell id="419" value="Job#A0" style="rounded=1;whiteSpace=wrap;html=1;fontColor=#ffffff;fillColor=#009999;strokeColor=#006EAF;arcSize=22;strokeWidth=2;dashed=1;" parent="1" vertex="1">
                    <mxGeometry x="434.75" y="2083.25" width="50.5" height="26" as="geometry"/>
                </mxCell>
                <mxCell id="420" value="Job#A1" style="rounded=1;whiteSpace=wrap;html=1;fontColor=#ffffff;fillColor=#009999;strokeColor=#006EAF;arcSize=22;strokeWidth=1;" parent="1" vertex="1">
                    <mxGeometry x="491.25" y="2083" width="53" height="26" as="geometry"/>
                </mxCell>
                <mxCell id="421" value="Job#A2" style="rounded=1;whiteSpace=wrap;html=1;fontColor=#ffffff;fillColor=#009999;strokeColor=#006EAF;arcSize=22;strokeWidth=2;dashed=1;" parent="1" vertex="1">
                    <mxGeometry x="434.75" y="2112.25" width="49" height="26" as="geometry"/>
                </mxCell>
                <mxCell id="423" value="Job#B1" style="rounded=1;whiteSpace=wrap;html=1;fontColor=#ffffff;fillColor=#00CCCC;strokeColor=#FFFFFF;arcSize=22;strokeWidth=2;dashed=1;" parent="1" vertex="1">
                    <mxGeometry x="435.25" y="2142.25" width="48.75" height="25" as="geometry"/>
                </mxCell>
                <mxCell id="429" value="" style="rounded=1;whiteSpace=wrap;html=1;shadow=0;glass=0;sketch=0;fontSize=10;fontColor=#004A52;strokeColor=#FFFFFF;strokeWidth=1;fillColor=none;gradientColor=none;gradientDirection=east;" parent="1" vertex="1">
                    <mxGeometry x="630.76" y="1981" width="72.74" height="55" as="geometry"/>
                </mxCell>
                <mxCell id="430" value="&lt;span style=&quot;font-size: 10px&quot;&gt;Task inbox&lt;/span&gt;" style="text;html=1;strokeColor=none;fillColor=none;align=center;verticalAlign=middle;whiteSpace=wrap;rounded=0;fontColor=#FFFFFF;" parent="1" vertex="1">
                    <mxGeometry x="630.13" y="1981" width="72.5" height="30" as="geometry"/>
                </mxCell>
                <mxCell id="432" value="" style="rounded=1;whiteSpace=wrap;html=1;shadow=0;glass=0;sketch=0;fontSize=10;fontColor=#004A52;strokeColor=#FFFFFF;strokeWidth=1;fillColor=none;gradientColor=none;gradientDirection=east;" parent="1" vertex="1">
                    <mxGeometry x="713.5" y="1982" width="78.37" height="55" as="geometry"/>
                </mxCell>
                <mxCell id="435" value="&lt;span style=&quot;font-size: 10px&quot;&gt;Task outbox&lt;/span&gt;" style="text;html=1;strokeColor=none;fillColor=none;align=center;verticalAlign=middle;whiteSpace=wrap;rounded=0;fontColor=#FFFFFF;rotation=0;" parent="1" vertex="1">
                    <mxGeometry x="725" y="1986" width="55.75" height="17" as="geometry"/>
                </mxCell>
                <mxCell id="443" value="Response outbox" style="text;html=1;strokeColor=none;fillColor=none;align=center;verticalAlign=middle;whiteSpace=wrap;rounded=0;fontColor=#FFFFFF;" parent="1" vertex="1">
                    <mxGeometry x="282" y="2050.75" width="104" height="30" as="geometry"/>
                </mxCell>
                <mxCell id="444" style="edgeStyle=none;html=1;exitX=0.5;exitY=0;exitDx=0;exitDy=0;entryX=0.5;entryY=0;entryDx=0;entryDy=0;fontSize=10;fontColor=#004A52;endArrow=none;endFill=0;strokeWidth=2;dashed=1;startArrow=open;startFill=0;strokeColor=#FFFFFF;" parent="1" edge="1">
                    <mxGeometry relative="1" as="geometry">
                        <mxPoint x="331.5" y="1969.5" as="sourcePoint"/>
                        <mxPoint x="487" y="1969.5" as="targetPoint"/>
                        <Array as="points">
                            <mxPoint x="333" y="1913"/>
                            <mxPoint x="487" y="1912"/>
                        </Array>
                    </mxGeometry>
                </mxCell>
                <mxCell id="445" value="Response # A" style="rounded=1;whiteSpace=wrap;html=1;fontColor=#ffffff;fillColor=#009999;strokeColor=#FFFFFF;arcSize=22;strokeWidth=2;gradientColor=none;gradientDirection=east;shadow=0;glass=0;sketch=0;" parent="1" vertex="1">
                    <mxGeometry x="276" y="2089" width="107" height="34" as="geometry"/>
                </mxCell>
                <mxCell id="446" value="Response #B" style="rounded=1;whiteSpace=wrap;html=1;fontColor=#ffffff;fillColor=#00CCCC;strokeColor=#FFFFFF;arcSize=22;strokeWidth=2;sketch=0;" parent="1" vertex="1">
                    <mxGeometry x="276" y="2136" width="107" height="28" as="geometry"/>
                </mxCell>
                <mxCell id="448" value="" style="rounded=1;whiteSpace=wrap;html=1;shadow=0;glass=0;sketch=0;fontSize=10;fontColor=#004A52;strokeColor=#FFFFFF;strokeWidth=1;fillColor=none;gradientColor=none;gradientDirection=east;" parent="1" vertex="1">
                    <mxGeometry x="628.39" y="1875" width="72.74" height="55" as="geometry"/>
                </mxCell>
                <mxCell id="449" value="&lt;span style=&quot;font-size: 10px&quot;&gt;Task inbox&lt;/span&gt;" style="text;html=1;strokeColor=none;fillColor=none;align=center;verticalAlign=middle;whiteSpace=wrap;rounded=0;fontColor=#FFFFFF;" parent="1" vertex="1">
                    <mxGeometry x="627.07" y="1876.5" width="72.5" height="30" as="geometry"/>
                </mxCell>
                <mxCell id="450" value="" style="rounded=1;whiteSpace=wrap;html=1;shadow=0;glass=0;sketch=0;fontSize=10;fontColor=#004A52;strokeColor=#FFFFFF;strokeWidth=1;fillColor=none;gradientColor=none;gradientDirection=east;" parent="1" vertex="1">
                    <mxGeometry x="711.13" y="1876" width="78.37" height="55" as="geometry"/>
                </mxCell>
                <mxCell id="451" value="&lt;span style=&quot;font-size: 10px&quot;&gt;Task outbox&lt;/span&gt;" style="text;html=1;strokeColor=none;fillColor=none;align=center;verticalAlign=middle;whiteSpace=wrap;rounded=0;fontColor=#FFFFFF;rotation=0;" parent="1" vertex="1">
                    <mxGeometry x="721.12" y="1882" width="55.75" height="17" as="geometry"/>
                </mxCell>
                <mxCell id="452" value="" style="rounded=1;whiteSpace=wrap;html=1;shadow=0;glass=0;sketch=0;fontSize=10;fontColor=#004A52;strokeColor=#FFFFFF;strokeWidth=1;fillColor=none;gradientColor=none;gradientDirection=east;" parent="1" vertex="1">
                    <mxGeometry x="627.0699999999999" y="2134" width="72.74" height="55" as="geometry"/>
                </mxCell>
                <mxCell id="453" value="&lt;span style=&quot;font-size: 10px&quot;&gt;Task inbox&lt;/span&gt;" style="text;html=1;strokeColor=none;fillColor=none;align=center;verticalAlign=middle;whiteSpace=wrap;rounded=0;fontColor=#FFFFFF;" parent="1" vertex="1">
                    <mxGeometry x="624.36" y="2134" width="72.5" height="30" as="geometry"/>
                </mxCell>
                <mxCell id="454" value="" style="rounded=1;whiteSpace=wrap;html=1;shadow=0;glass=0;sketch=0;fontSize=10;fontColor=#004A52;strokeColor=#FFFFFF;strokeWidth=1;fillColor=none;gradientColor=none;gradientDirection=east;" parent="1" vertex="1">
                    <mxGeometry x="709.81" y="2135" width="78.37" height="55" as="geometry"/>
                </mxCell>
                <mxCell id="455" value="&lt;span style=&quot;font-size: 10px&quot;&gt;Task outbox&lt;/span&gt;" style="text;html=1;strokeColor=none;fillColor=none;align=center;verticalAlign=middle;whiteSpace=wrap;rounded=0;fontColor=#FFFFFF;rotation=0;" parent="1" vertex="1">
                    <mxGeometry x="722.4399999999999" y="2140" width="55.75" height="17" as="geometry"/>
                </mxCell>
                <mxCell id="456" value="" style="rounded=1;whiteSpace=wrap;html=1;dashed=1;fontSize=10;fontColor=#004A52;strokeColor=#4DB2BD;fillColor=none;gradientColor=none;arcSize=8;perimeterSpacing=0;strokeWidth=2;" parent="1" vertex="1">
                    <mxGeometry x="3" y="2271" width="810" height="441" as="geometry"/>
                </mxCell>
                <mxCell id="457" value="&lt;font style=&quot;font-size: 19px&quot;&gt;Server&lt;/font&gt;" style="text;html=1;strokeColor=none;fillColor=none;align=center;verticalAlign=middle;whiteSpace=wrap;rounded=0;fontColor=#FFFFFF;" parent="1" vertex="1">
                    <mxGeometry x="347.5" y="2301" width="119" height="30" as="geometry"/>
                </mxCell>
                <mxCell id="458" style="edgeStyle=none;html=1;exitX=0.75;exitY=0;exitDx=0;exitDy=0;entryX=0.301;entryY=1.008;entryDx=0;entryDy=0;entryPerimeter=0;fontSize=19;fontColor=#FFFFFF;endArrow=blockThin;endFill=1;strokeWidth=2;" parent="1" source="459" target="463" edge="1">
                    <mxGeometry relative="1" as="geometry"/>
                </mxCell>
                <mxCell id="459" value="" style="rounded=1;whiteSpace=wrap;html=1;fontColor=#004A52;strokeColor=#FFFFFF;fillColor=#00636E;" parent="1" vertex="1">
                    <mxGeometry x="255" y="2441" width="120" height="107" as="geometry"/>
                </mxCell>
                <mxCell id="460" value="Service Server" style="text;html=1;strokeColor=none;fillColor=none;align=center;verticalAlign=middle;whiteSpace=wrap;rounded=0;fontColor=#FFFFFF;" parent="1" vertex="1">
                    <mxGeometry x="269" y="2445" width="93" height="30" as="geometry"/>
                </mxCell>
                <mxCell id="461" style="edgeStyle=none;html=1;exitX=0.105;exitY=0.994;exitDx=0;exitDy=0;entryX=0.25;entryY=0;entryDx=0;entryDy=0;fontSize=19;fontColor=#FFFFFF;endArrow=none;endFill=0;strokeWidth=2;exitPerimeter=0;" parent="1" source="463" target="459" edge="1">
                    <mxGeometry relative="1" as="geometry"/>
                </mxCell>
                <mxCell id="462" style="edgeStyle=none;html=1;exitX=0.701;exitY=1.008;exitDx=0;exitDy=0;entryX=0.25;entryY=0;entryDx=0;entryDy=0;fontSize=19;fontColor=#FFFFFF;endArrow=blockThin;endFill=1;strokeWidth=2;exitPerimeter=0;" parent="1" source="463" target="466" edge="1">
                    <mxGeometry relative="1" as="geometry"/>
                </mxCell>
                <mxCell id="463" value="" style="rounded=1;whiteSpace=wrap;html=1;fontSize=19;fontColor=#FFFFFF;strokeColor=#FFFFFF;fillColor=#00636E;" parent="1" vertex="1">
                    <mxGeometry x="254" y="2342" width="305" height="60" as="geometry"/>
                </mxCell>
                <mxCell id="464" value="Server Controller" style="text;html=1;strokeColor=none;fillColor=none;align=center;verticalAlign=middle;whiteSpace=wrap;rounded=0;fontColor=#FFFFFF;" parent="1" vertex="1">
                    <mxGeometry x="331" y="2342" width="150" height="30" as="geometry"/>
                </mxCell>
                <mxCell id="465" style="edgeStyle=none;html=1;exitX=0.75;exitY=0;exitDx=0;exitDy=0;entryX=0.896;entryY=0.988;entryDx=0;entryDy=0;entryPerimeter=0;fontSize=19;fontColor=#FFFFFF;endArrow=blockThin;endFill=1;strokeWidth=2;" parent="1" source="466" target="463" edge="1">
                    <mxGeometry relative="1" as="geometry"/>
                </mxCell>
                <mxCell id="466" value="" style="rounded=1;whiteSpace=wrap;html=1;fontColor=#004A52;strokeColor=#FFFFFF;fillColor=#00636E;" parent="1" vertex="1">
                    <mxGeometry x="437" y="2438.5" width="120" height="107" as="geometry"/>
                </mxCell>
                <mxCell id="467" value="Master node" style="text;html=1;strokeColor=none;fillColor=none;align=center;verticalAlign=middle;whiteSpace=wrap;rounded=0;fontColor=#FFFFFF;" parent="1" vertex="1">
                    <mxGeometry x="460.75" y="2445" width="72.5" height="30" as="geometry"/>
                </mxCell>
                <mxCell id="468" value="" style="rounded=1;whiteSpace=wrap;html=1;fontColor=#004A52;strokeColor=#FFFFFF;fillColor=#00636E;" parent="1" vertex="1">
                    <mxGeometry x="610" y="2282" width="198" height="249" as="geometry"/>
                </mxCell>
                <mxCell id="469" value="Slave node #0" style="text;html=1;strokeColor=none;fillColor=none;align=center;verticalAlign=middle;whiteSpace=wrap;rounded=0;fontColor=#FFFFFF;" parent="1" vertex="1">
                    <mxGeometry x="665.38" y="2284" width="87.25" height="30" as="geometry"/>
                </mxCell>
                <mxCell id="470" value="" style="rounded=1;whiteSpace=wrap;html=1;fontSize=19;fontColor=#FFFFFF;strokeColor=#FFFFFF;fillColor=#009999;" parent="1" vertex="1">
                    <mxGeometry x="620" y="2317" width="176" height="91" as="geometry"/>
                </mxCell>
                <mxCell id="471" value="&lt;font style=&quot;font-size: 10px&quot;&gt;ImageTaskModule&lt;/font&gt;" style="text;html=1;strokeColor=none;fillColor=none;align=center;verticalAlign=middle;whiteSpace=wrap;rounded=0;fontColor=#FFFFFF;" parent="1" vertex="1">
                    <mxGeometry x="669.75" y="2316" width="72.5" height="30" as="geometry"/>
                </mxCell>
                <mxCell id="472" value="" style="rounded=1;whiteSpace=wrap;html=1;fontSize=19;fontColor=#FFFFFF;strokeColor=#FFFFFF;fillColor=#00CCCC;" parent="1" vertex="1">
                    <mxGeometry x="621" y="2417" width="176" height="98" as="geometry"/>
                </mxCell>
                <mxCell id="473" value="&lt;font style=&quot;font-size: 10px&quot;&gt;Yolov5TaskModule&lt;/font&gt;" style="text;html=1;strokeColor=none;fillColor=none;align=center;verticalAlign=middle;whiteSpace=wrap;rounded=0;fontColor=#FFFFFF;" parent="1" vertex="1">
                    <mxGeometry x="669.75" y="2418" width="72.5" height="30" as="geometry"/>
                </mxCell>
                <mxCell id="474" value="" style="rounded=1;whiteSpace=wrap;html=1;fontColor=#004A52;strokeColor=#FFFFFF;fillColor=#00636E;" parent="1" vertex="1">
                    <mxGeometry x="607" y="2542" width="198" height="135" as="geometry"/>
                </mxCell>
                <mxCell id="475" value="Slave node #0" style="text;html=1;strokeColor=none;fillColor=none;align=center;verticalAlign=middle;whiteSpace=wrap;rounded=0;fontColor=#FFFFFF;" parent="1" vertex="1">
                    <mxGeometry x="662.38" y="2544" width="87.25" height="30" as="geometry"/>
                </mxCell>
                <mxCell id="476" value="" style="rounded=1;whiteSpace=wrap;html=1;fontSize=19;fontColor=#FFFFFF;strokeColor=#FFFFFF;fillColor=#009999;" parent="1" vertex="1">
                    <mxGeometry x="617" y="2577" width="176" height="91" as="geometry"/>
                </mxCell>
                <mxCell id="477" value="&lt;font style=&quot;font-size: 10px&quot;&gt;ImageTaskModule&lt;/font&gt;" style="text;html=1;strokeColor=none;fillColor=none;align=center;verticalAlign=middle;whiteSpace=wrap;rounded=0;fontColor=#FFFFFF;" parent="1" vertex="1">
                    <mxGeometry x="666.75" y="2576" width="72.5" height="30" as="geometry"/>
                </mxCell>
                <mxCell id="478" value="" style="rounded=1;whiteSpace=wrap;html=1;fontColor=#004A52;strokeColor=#FFFFFF;fillColor=#00636E;arcSize=11;" parent="1" vertex="1">
                    <mxGeometry x="241" y="2298" width="334" height="377" as="geometry"/>
                </mxCell>
                <mxCell id="479" value="&lt;font style=&quot;font-size: 19px&quot;&gt;Server&lt;/font&gt;" style="text;html=1;strokeColor=none;fillColor=none;align=center;verticalAlign=middle;whiteSpace=wrap;rounded=0;fontColor=#FFFFFF;" parent="1" vertex="1">
                    <mxGeometry x="348.5" y="2302" width="119" height="30" as="geometry"/>
                </mxCell>
                <mxCell id="480" value="" style="rounded=1;whiteSpace=wrap;html=1;fontSize=19;fontColor=#FFFFFF;strokeColor=#FFFFFF;fillColor=#00636E;" parent="1" vertex="1">
                    <mxGeometry x="255" y="2343" width="305" height="60" as="geometry"/>
                </mxCell>
                <mxCell id="481" value="Server Controller" style="text;html=1;strokeColor=none;fillColor=none;align=center;verticalAlign=middle;whiteSpace=wrap;rounded=0;fontColor=#FFFFFF;" parent="1" vertex="1">
                    <mxGeometry x="332" y="2343" width="150" height="30" as="geometry"/>
                </mxCell>
                <mxCell id="482" value="" style="rounded=1;whiteSpace=wrap;html=1;fontColor=#004A52;strokeColor=#FFFFFF;fillColor=#00636E;" parent="1" vertex="1">
                    <mxGeometry x="418" y="2439.5" width="140" height="221.5" as="geometry"/>
                </mxCell>
                <mxCell id="483" value="Master node" style="text;html=1;strokeColor=none;fillColor=none;align=center;verticalAlign=middle;whiteSpace=wrap;rounded=0;fontColor=#FFFFFF;" parent="1" vertex="1">
                    <mxGeometry x="452.25" y="2445" width="72.5" height="30" as="geometry"/>
                </mxCell>
                <mxCell id="484" value="" style="rounded=1;whiteSpace=wrap;html=1;fontColor=#004A52;strokeColor=#FFFFFF;fillColor=#00636E;" parent="1" vertex="1">
                    <mxGeometry x="611" y="2283" width="198" height="249" as="geometry"/>
                </mxCell>
                <mxCell id="485" value="Slave node #0" style="text;html=1;strokeColor=none;fillColor=none;align=center;verticalAlign=middle;whiteSpace=wrap;rounded=0;fontColor=#FFFFFF;" parent="1" vertex="1">
                    <mxGeometry x="666.38" y="2285" width="87.25" height="30" as="geometry"/>
                </mxCell>
                <mxCell id="486" value="" style="rounded=1;whiteSpace=wrap;html=1;fontSize=19;fontColor=#FFFFFF;strokeColor=#FFFFFF;fillColor=#009999;" parent="1" vertex="1">
                    <mxGeometry x="621" y="2318" width="176" height="91" as="geometry"/>
                </mxCell>
                <mxCell id="487" value="&lt;font style=&quot;font-size: 10px&quot;&gt;ImageTaskModule&lt;/font&gt;" style="text;html=1;strokeColor=none;fillColor=none;align=center;verticalAlign=middle;whiteSpace=wrap;rounded=0;fontColor=#FFFFFF;" parent="1" vertex="1">
                    <mxGeometry x="670.75" y="2317" width="72.5" height="30" as="geometry"/>
                </mxCell>
                <mxCell id="488" value="" style="rounded=1;whiteSpace=wrap;html=1;fontSize=19;fontColor=#FFFFFF;strokeColor=#FFFFFF;fillColor=#00CCCC;" parent="1" vertex="1">
                    <mxGeometry x="622" y="2418" width="176" height="98" as="geometry"/>
                </mxCell>
                <mxCell id="489" value="&lt;font style=&quot;font-size: 10px&quot;&gt;Yolov5TaskModule&lt;/font&gt;" style="text;html=1;strokeColor=none;fillColor=none;align=center;verticalAlign=middle;whiteSpace=wrap;rounded=0;fontColor=#FFFFFF;" parent="1" vertex="1">
                    <mxGeometry x="670.75" y="2419" width="72.5" height="30" as="geometry"/>
                </mxCell>
                <mxCell id="490" value="" style="rounded=1;whiteSpace=wrap;html=1;fontColor=#004A52;strokeColor=#FFFFFF;fillColor=#00636E;" parent="1" vertex="1">
                    <mxGeometry x="608" y="2543" width="198" height="135" as="geometry"/>
                </mxCell>
                <mxCell id="491" value="Slave node #1" style="text;html=1;strokeColor=none;fillColor=none;align=center;verticalAlign=middle;whiteSpace=wrap;rounded=0;fontColor=#FFFFFF;" parent="1" vertex="1">
                    <mxGeometry x="663.38" y="2545" width="87.25" height="30" as="geometry"/>
                </mxCell>
                <mxCell id="492" value="" style="rounded=1;whiteSpace=wrap;html=1;fontSize=19;fontColor=#FFFFFF;strokeColor=#FFFFFF;fillColor=#009999;" parent="1" vertex="1">
                    <mxGeometry x="618" y="2578" width="176" height="91" as="geometry"/>
                </mxCell>
                <mxCell id="493" value="&lt;font style=&quot;font-size: 10px&quot;&gt;ImageTaskModule&lt;/font&gt;" style="text;html=1;strokeColor=none;fillColor=none;align=center;verticalAlign=middle;whiteSpace=wrap;rounded=0;fontColor=#FFFFFF;" parent="1" vertex="1">
                    <mxGeometry x="667.75" y="2577" width="72.5" height="30" as="geometry"/>
                </mxCell>
                <mxCell id="494" value="&lt;font color=&quot;#004a52&quot; style=&quot;font-size: 12px&quot;&gt;&lt;b&gt;STEP 6: &lt;/b&gt;Finalmente el servidor envía la respuesta la cliente con el resultado del procesamiento ordenado.&amp;nbsp;&lt;/font&gt;" style="text;html=1;strokeColor=none;fillColor=#4DB2BD;align=center;verticalAlign=middle;whiteSpace=wrap;rounded=0;fontSize=10;fontColor=#FFFFFF;gradientColor=none;" parent="1" vertex="1">
                    <mxGeometry x="20" y="2311" width="200" height="109" as="geometry"/>
                </mxCell>
                <mxCell id="495" value="" style="rounded=1;whiteSpace=wrap;html=1;fontColor=#004A52;strokeColor=#FFFFFF;fillColor=#00636E;" parent="1" vertex="1">
                    <mxGeometry x="258" y="2439.5" width="149" height="220.5" as="geometry"/>
                </mxCell>
                <mxCell id="496" value="Service Server" style="text;html=1;strokeColor=none;fillColor=none;align=center;verticalAlign=middle;whiteSpace=wrap;rounded=0;fontColor=#FFFFFF;" parent="1" vertex="1">
                    <mxGeometry x="291" y="2443.5" width="93" height="30" as="geometry"/>
                </mxCell>
                <mxCell id="497" value="" style="rounded=1;whiteSpace=wrap;html=1;fontColor=#004A52;strokeColor=#FFFFFF;fillColor=#00636E;arcSize=26;" parent="1" vertex="1">
                    <mxGeometry x="265" y="2475" width="131" height="45" as="geometry"/>
                </mxCell>
                <mxCell id="498" value="Request inbox" style="text;html=1;strokeColor=none;fillColor=none;align=center;verticalAlign=middle;whiteSpace=wrap;rounded=0;fontColor=#FFFFFF;" parent="1" vertex="1">
                    <mxGeometry x="285" y="2477" width="93" height="30" as="geometry"/>
                </mxCell>
                <mxCell id="528" style="edgeStyle=none;html=1;exitX=0;exitY=0.5;exitDx=0;exitDy=0;entryX=1;entryY=0.5;entryDx=0;entryDy=0;fontSize=7;fontColor=#004A52;endArrow=classic;endFill=1;strokeWidth=2;strokeColor=#FFFFFF;" parent="1" source="499" target="501" edge="1">
                    <mxGeometry relative="1" as="geometry"/>
                </mxCell>
                <mxCell id="499" value="" style="rounded=1;whiteSpace=wrap;html=1;fontColor=#004A52;strokeColor=#FFFFFF;fillColor=#00636E;arcSize=10;" parent="1" vertex="1">
                    <mxGeometry x="266" y="2527.75" width="129" height="122" as="geometry"/>
                </mxCell>
                <mxCell id="501" value="" style="rounded=1;whiteSpace=wrap;html=1;fontColor=#004A52;strokeColor=#FFFFFF;fillColor=#00636E;" parent="1" vertex="1">
                    <mxGeometry x="31" y="2496.75" width="120" height="107" as="geometry"/>
                </mxCell>
                <mxCell id="502" value="Client #0" style="text;html=1;strokeColor=none;fillColor=none;align=center;verticalAlign=middle;whiteSpace=wrap;rounded=0;fontColor=#FFFFFF;" parent="1" vertex="1">
                    <mxGeometry x="60" y="2497.75" width="60" height="30" as="geometry"/>
                </mxCell>
                <mxCell id="503" value="" style="rounded=1;whiteSpace=wrap;html=1;fontColor=#004A52;strokeColor=#FFFFFF;fillColor=#00636E;arcSize=12;" parent="1" vertex="1">
                    <mxGeometry x="423.5" y="2526" width="129" height="120" as="geometry"/>
                </mxCell>
                <mxCell id="504" value="Task outbox" style="text;html=1;strokeColor=none;fillColor=none;align=center;verticalAlign=middle;whiteSpace=wrap;rounded=0;fontColor=#FFFFFF;" parent="1" vertex="1">
                    <mxGeometry x="435.75" y="2521.75" width="93" height="30" as="geometry"/>
                </mxCell>
                <mxCell id="505" value="" style="rounded=1;whiteSpace=wrap;html=1;fontColor=#004A52;strokeColor=#FFFFFF;fillColor=#00636E;arcSize=30;" parent="1" vertex="1">
                    <mxGeometry x="423.5" y="2474" width="129" height="47" as="geometry"/>
                </mxCell>
                <mxCell id="506" value="Task inbox" style="text;html=1;strokeColor=none;fillColor=none;align=center;verticalAlign=middle;whiteSpace=wrap;rounded=0;fontColor=#FFFFFF;" parent="1" vertex="1">
                    <mxGeometry x="441.5" y="2471.5" width="93" height="30" as="geometry"/>
                </mxCell>
                <mxCell id="512" value="" style="rounded=1;whiteSpace=wrap;html=1;shadow=0;glass=0;sketch=0;fontSize=10;fontColor=#004A52;strokeColor=#FFFFFF;strokeWidth=1;fillColor=none;gradientColor=none;gradientDirection=east;" parent="1" vertex="1">
                    <mxGeometry x="630.26" y="2452" width="72.74" height="55" as="geometry"/>
                </mxCell>
                <mxCell id="513" value="&lt;span style=&quot;font-size: 10px&quot;&gt;Task inbox&lt;/span&gt;" style="text;html=1;strokeColor=none;fillColor=none;align=center;verticalAlign=middle;whiteSpace=wrap;rounded=0;fontColor=#FFFFFF;" parent="1" vertex="1">
                    <mxGeometry x="629.63" y="2452" width="72.5" height="30" as="geometry"/>
                </mxCell>
                <mxCell id="514" value="" style="rounded=1;whiteSpace=wrap;html=1;shadow=0;glass=0;sketch=0;fontSize=10;fontColor=#004A52;strokeColor=#FFFFFF;strokeWidth=1;fillColor=none;gradientColor=none;gradientDirection=east;" parent="1" vertex="1">
                    <mxGeometry x="713" y="2453" width="78.37" height="55" as="geometry"/>
                </mxCell>
                <mxCell id="515" value="&lt;span style=&quot;font-size: 10px&quot;&gt;Task outbox&lt;/span&gt;" style="text;html=1;strokeColor=none;fillColor=none;align=center;verticalAlign=middle;whiteSpace=wrap;rounded=0;fontColor=#FFFFFF;rotation=0;" parent="1" vertex="1">
                    <mxGeometry x="724.5" y="2457" width="55.75" height="17" as="geometry"/>
                </mxCell>
                <mxCell id="516" value="Response outbox" style="text;html=1;strokeColor=none;fillColor=none;align=center;verticalAlign=middle;whiteSpace=wrap;rounded=0;fontColor=#FFFFFF;" parent="1" vertex="1">
                    <mxGeometry x="281.5" y="2521.75" width="104" height="30" as="geometry"/>
                </mxCell>
                <mxCell id="518" value="Response # A" style="rounded=1;whiteSpace=wrap;html=1;fontColor=#ffffff;fillColor=#009999;strokeColor=#FFFFFF;arcSize=22;strokeWidth=2;gradientColor=none;gradientDirection=east;shadow=0;glass=0;sketch=0;dashed=1;" parent="1" vertex="1">
                    <mxGeometry x="275.5" y="2565" width="107" height="29" as="geometry"/>
                </mxCell>
                <mxCell id="519" value="Response #B" style="rounded=1;whiteSpace=wrap;html=1;fontColor=#ffffff;fillColor=#00CCCC;strokeColor=#FFFFFF;arcSize=22;strokeWidth=2;sketch=0;dashed=1;" parent="1" vertex="1">
                    <mxGeometry x="275.5" y="2607" width="107" height="28" as="geometry"/>
                </mxCell>
                <mxCell id="520" value="" style="rounded=1;whiteSpace=wrap;html=1;shadow=0;glass=0;sketch=0;fontSize=10;fontColor=#004A52;strokeColor=#FFFFFF;strokeWidth=1;fillColor=none;gradientColor=none;gradientDirection=east;" parent="1" vertex="1">
                    <mxGeometry x="627.89" y="2346" width="72.74" height="55" as="geometry"/>
                </mxCell>
                <mxCell id="521" value="&lt;span style=&quot;font-size: 10px&quot;&gt;Task inbox&lt;/span&gt;" style="text;html=1;strokeColor=none;fillColor=none;align=center;verticalAlign=middle;whiteSpace=wrap;rounded=0;fontColor=#FFFFFF;" parent="1" vertex="1">
                    <mxGeometry x="626.57" y="2347.5" width="72.5" height="30" as="geometry"/>
                </mxCell>
                <mxCell id="522" value="" style="rounded=1;whiteSpace=wrap;html=1;shadow=0;glass=0;sketch=0;fontSize=10;fontColor=#004A52;strokeColor=#FFFFFF;strokeWidth=1;fillColor=none;gradientColor=none;gradientDirection=east;" parent="1" vertex="1">
                    <mxGeometry x="710.63" y="2347" width="78.37" height="55" as="geometry"/>
                </mxCell>
                <mxCell id="523" value="&lt;span style=&quot;font-size: 10px&quot;&gt;Task outbox&lt;/span&gt;" style="text;html=1;strokeColor=none;fillColor=none;align=center;verticalAlign=middle;whiteSpace=wrap;rounded=0;fontColor=#FFFFFF;rotation=0;" parent="1" vertex="1">
                    <mxGeometry x="720.62" y="2353" width="55.75" height="17" as="geometry"/>
                </mxCell>
                <mxCell id="524" value="" style="rounded=1;whiteSpace=wrap;html=1;shadow=0;glass=0;sketch=0;fontSize=10;fontColor=#004A52;strokeColor=#FFFFFF;strokeWidth=1;fillColor=none;gradientColor=none;gradientDirection=east;" parent="1" vertex="1">
                    <mxGeometry x="626.5699999999999" y="2605" width="72.74" height="55" as="geometry"/>
                </mxCell>
                <mxCell id="525" value="&lt;span style=&quot;font-size: 10px&quot;&gt;Task inbox&lt;/span&gt;" style="text;html=1;strokeColor=none;fillColor=none;align=center;verticalAlign=middle;whiteSpace=wrap;rounded=0;fontColor=#FFFFFF;" parent="1" vertex="1">
                    <mxGeometry x="623.86" y="2605" width="72.5" height="30" as="geometry"/>
                </mxCell>
                <mxCell id="526" value="" style="rounded=1;whiteSpace=wrap;html=1;shadow=0;glass=0;sketch=0;fontSize=10;fontColor=#004A52;strokeColor=#FFFFFF;strokeWidth=1;fillColor=none;gradientColor=none;gradientDirection=east;" parent="1" vertex="1">
                    <mxGeometry x="709.31" y="2606" width="78.37" height="55" as="geometry"/>
                </mxCell>
                <mxCell id="527" value="&lt;span style=&quot;font-size: 10px&quot;&gt;Task outbox&lt;/span&gt;" style="text;html=1;strokeColor=none;fillColor=none;align=center;verticalAlign=middle;whiteSpace=wrap;rounded=0;fontColor=#FFFFFF;rotation=0;" parent="1" vertex="1">
                    <mxGeometry x="721.9399999999999" y="2611" width="55.75" height="17" as="geometry"/>
                </mxCell>
                <mxCell id="529" value="Response # A" style="rounded=1;whiteSpace=wrap;html=1;fontColor=#ffffff;fillColor=#009999;strokeColor=#FFFFFF;arcSize=22;strokeWidth=2;gradientColor=none;gradientDirection=east;shadow=0;glass=0;sketch=0;" parent="1" vertex="1">
                    <mxGeometry x="37" y="2534" width="107" height="26" as="geometry"/>
                </mxCell>
                <mxCell id="530" value="Response #B" style="rounded=1;whiteSpace=wrap;html=1;fontColor=#ffffff;fillColor=#00CCCC;strokeColor=#FFFFFF;arcSize=22;strokeWidth=2;sketch=0;" parent="1" vertex="1">
                    <mxGeometry x="38" y="2570" width="107" height="24" as="geometry"/>
                </mxCell>
            </root>
        </mxGraphModel>
    </diagram>
    <diagram id="m8HRzB8lMP7_eCO_HkL9" name="Concepto">
        <mxGraphModel dx="1295" dy="855" grid="1" gridSize="10" guides="1" tooltips="1" connect="1" arrows="1" fold="1" page="1" pageScale="1" pageWidth="827" pageHeight="1169" math="0" shadow="0">
            <root>
                <mxCell id="1XSW1rpmY0kY1yKvGb0d-0"/>
                <mxCell id="1XSW1rpmY0kY1yKvGb0d-1" parent="1XSW1rpmY0kY1yKvGb0d-0"/>
                <mxCell id="1XSW1rpmY0kY1yKvGb0d-2" value="&lt;b&gt;&lt;font color=&quot;#367d85&quot;&gt;Cliente&lt;/font&gt;&lt;/b&gt;" style="ellipse;whiteSpace=wrap;html=1;aspect=fixed;fillColor=#C4FFFB;fontColor=#000000;strokeWidth=2;strokeColor=#4DB2BD;" parent="1XSW1rpmY0kY1yKvGb0d-1" vertex="1">
                    <mxGeometry x="460" y="420" width="80" height="80" as="geometry"/>
                </mxCell>
                <mxCell id="1XSW1rpmY0kY1yKvGb0d-4" value="&lt;font style=&quot;font-size: 21px&quot;&gt;&lt;b&gt;Servicio de &lt;br&gt;Cálculo &lt;br&gt;Distribuido&lt;/b&gt;&lt;/font&gt;" style="ellipse;shape=cloud;whiteSpace=wrap;html=1;fontColor=#367D85;strokeColor=#4DB2BD;strokeWidth=2;fillColor=#57F7F7;gradientColor=#ffffff;gradientDirection=south;" parent="1XSW1rpmY0kY1yKvGb0d-1" vertex="1">
                    <mxGeometry x="274" y="170" width="280" height="210" as="geometry"/>
                </mxCell>
                <mxCell id="1XSW1rpmY0kY1yKvGb0d-8" value="&lt;b&gt;&lt;font&gt;Cliente&lt;/font&gt;&lt;/b&gt;" style="ellipse;whiteSpace=wrap;html=1;aspect=fixed;fillColor=#367D85;fontColor=#C4FFFB;strokeWidth=2;strokeColor=#4DB2BD;" parent="1XSW1rpmY0kY1yKvGb0d-1" vertex="1">
                    <mxGeometry x="110" y="200" width="80" height="80" as="geometry"/>
                </mxCell>
                <mxCell id="1XSW1rpmY0kY1yKvGb0d-9" value="&lt;b&gt;&lt;font&gt;Cliente&lt;/font&gt;&lt;/b&gt;" style="ellipse;whiteSpace=wrap;html=1;aspect=fixed;fillColor=#56C7D4;fontColor=#367D85;strokeWidth=2;strokeColor=#367D85;" parent="1XSW1rpmY0kY1yKvGb0d-1" vertex="1">
                    <mxGeometry x="110" y="320" width="80" height="80" as="geometry"/>
                </mxCell>
                <mxCell id="1XSW1rpmY0kY1yKvGb0d-10" value="&lt;b&gt;&lt;font color=&quot;#367d85&quot;&gt;Cliente&lt;/font&gt;&lt;/b&gt;" style="ellipse;whiteSpace=wrap;html=1;aspect=fixed;fillColor=#8ECFCA;fontColor=#000000;strokeWidth=2;strokeColor=#56C7D4;" parent="1XSW1rpmY0kY1yKvGb0d-1" vertex="1">
                    <mxGeometry x="274" y="410" width="80" height="80" as="geometry"/>
                </mxCell>
                <mxCell id="1XSW1rpmY0kY1yKvGb0d-11" value="" style="endArrow=blockThin;dashed=1;html=1;fontSize=21;fontColor=#367D85;strokeColor=#4DB2BD;strokeWidth=2;endFill=1;" parent="1XSW1rpmY0kY1yKvGb0d-1" edge="1">
                    <mxGeometry width="50" height="50" relative="1" as="geometry">
                        <mxPoint x="200" y="230" as="sourcePoint"/>
                        <mxPoint x="280" y="240" as="targetPoint"/>
                    </mxGeometry>
                </mxCell>
                <mxCell id="1XSW1rpmY0kY1yKvGb0d-15" value="" style="endArrow=none;html=1;fontSize=21;fontColor=#57F7F7;strokeColor=#AAF7F2;strokeWidth=2;dashed=1;startArrow=blockThin;startFill=1;" parent="1XSW1rpmY0kY1yKvGb0d-1" edge="1">
                    <mxGeometry width="50" height="50" relative="1" as="geometry">
                        <mxPoint x="190" y="266" as="sourcePoint"/>
                        <mxPoint x="280" y="266" as="targetPoint"/>
                    </mxGeometry>
                </mxCell>
                <mxCell id="1XSW1rpmY0kY1yKvGb0d-16" value="" style="endArrow=blockThin;html=1;fontSize=21;fontColor=#57F7F7;strokeColor=#56C7D4;strokeWidth=2;entryX=0.093;entryY=0.667;entryDx=0;entryDy=0;entryPerimeter=0;dashed=1;startArrow=none;startFill=0;endFill=1;" parent="1XSW1rpmY0kY1yKvGb0d-1" target="1XSW1rpmY0kY1yKvGb0d-4" edge="1">
                    <mxGeometry width="50" height="50" relative="1" as="geometry">
                        <mxPoint x="190" y="330" as="sourcePoint"/>
                        <mxPoint x="300.03999999999996" y="310.08000000000004" as="targetPoint"/>
                    </mxGeometry>
                </mxCell>
                <mxCell id="1XSW1rpmY0kY1yKvGb0d-17" value="" style="endArrow=blockThin;html=1;fontSize=21;fontColor=#57F7F7;strokeColor=#AAF7F2;strokeWidth=2;exitX=0.112;exitY=0.771;exitDx=0;exitDy=0;exitPerimeter=0;dashed=1;startArrow=none;startFill=0;endFill=1;" parent="1XSW1rpmY0kY1yKvGb0d-1" source="1XSW1rpmY0kY1yKvGb0d-4" edge="1">
                    <mxGeometry width="50" height="50" relative="1" as="geometry">
                        <mxPoint x="194.31999999999994" y="343.68000000000006" as="sourcePoint"/>
                        <mxPoint x="200" y="360" as="targetPoint"/>
                    </mxGeometry>
                </mxCell>
                <mxCell id="1XSW1rpmY0kY1yKvGb0d-18" value="" style="endArrow=blockThin;html=1;fontSize=21;fontColor=#57F7F7;strokeColor=#8ECFCA;strokeWidth=2;dashed=1;startArrow=none;startFill=0;endFill=1;" parent="1XSW1rpmY0kY1yKvGb0d-1" target="1XSW1rpmY0kY1yKvGb0d-4" edge="1">
                    <mxGeometry width="50" height="50" relative="1" as="geometry">
                        <mxPoint x="310" y="400" as="sourcePoint"/>
                        <mxPoint x="330" y="350" as="targetPoint"/>
                    </mxGeometry>
                </mxCell>
                <mxCell id="1XSW1rpmY0kY1yKvGb0d-19" value="" style="endArrow=none;html=1;fontSize=21;fontColor=#57F7F7;strokeColor=#AAF7F2;strokeWidth=2;dashed=1;startArrow=blockThin;startFill=1;" parent="1XSW1rpmY0kY1yKvGb0d-1" target="1XSW1rpmY0kY1yKvGb0d-4" edge="1">
                    <mxGeometry width="50" height="50" relative="1" as="geometry">
                        <mxPoint x="340" y="410" as="sourcePoint"/>
                        <mxPoint x="430" y="410" as="targetPoint"/>
                    </mxGeometry>
                </mxCell>
                <mxCell id="1XSW1rpmY0kY1yKvGb0d-20" value="" style="endArrow=none;html=1;fontSize=21;fontColor=#57F7F7;strokeColor=#AAF7F2;strokeWidth=2;dashed=1;startArrow=blockThin;startFill=1;" parent="1XSW1rpmY0kY1yKvGb0d-1" target="1XSW1rpmY0kY1yKvGb0d-4" edge="1">
                    <mxGeometry width="50" height="50" relative="1" as="geometry">
                        <mxPoint x="490" y="410" as="sourcePoint"/>
                        <mxPoint x="580" y="410" as="targetPoint"/>
                    </mxGeometry>
                </mxCell>
                <mxCell id="1XSW1rpmY0kY1yKvGb0d-21" value="" style="endArrow=none;html=1;fontSize=21;fontColor=#57F7F7;strokeColor=#AAF7F2;strokeWidth=2;dashed=1;startArrow=blockThin;startFill=1;endFill=0;" parent="1XSW1rpmY0kY1yKvGb0d-1" edge="1">
                    <mxGeometry width="50" height="50" relative="1" as="geometry">
                        <mxPoint x="440" y="380" as="sourcePoint"/>
                        <mxPoint x="460" y="420" as="targetPoint"/>
                    </mxGeometry>
                </mxCell>
            </root>
        </mxGraphModel>
    </diagram>
</mxfile>